<svg width="43" height="100" viewBox="0 0 43 100" fill="none" xmlns="http://www.w3.org/2000/svg">
<path d="M19.3166 99V25.22L1.81656 29.98V12.9L28.5566 0.999993H41.1566V99H19.3166Z" fill="#CECEFB" fill-opacity="0.1"/>
<path d="M19.3166 99H18.3166V100H19.3166V99ZM19.3166 25.22H20.3166V23.9117L19.0541 24.2551L19.3166 25.22ZM1.81656 29.98H0.816563V31.2883L2.07903 30.9449L1.81656 29.98ZM1.81656 12.9L1.40998 11.9864L0.816563 12.2505V12.9H1.81656ZM28.5566 0.999992V-7.62939e-06H28.3441L28.15 0.08638L28.5566 0.999992ZM41.1566 0.999992H42.1566V-7.62939e-06H41.1566V0.999992ZM41.1566 99V100H42.1566V99H41.1566ZM20.3166 99V25.22H18.3166V99H20.3166ZM19.0541 24.2551L1.5541 29.0151L2.07903 30.9449L19.579 26.1849L19.0541 24.2551ZM2.81656 29.98V12.9H0.816563V29.98H2.81656ZM2.22315 13.8136L28.9631 1.91361L28.15 0.08638L1.40998 11.9864L2.22315 13.8136ZM28.5566 1.99999H41.1566V-7.62939e-06H28.5566V1.99999ZM40.1566 0.999992V99H42.1566V0.999992H40.1566ZM41.1566 98H19.3166V100H41.1566V98Z" fill="#CECEFB" fill-opacity="0.4"/>
</svg>
