<svg width="72" height="102" viewBox="0 0 72 102" fill="none" xmlns="http://www.w3.org/2000/svg">
<path d="M1.61125 101V85.46C7.30458 80.7933 12.9046 76.1733 18.4113 71.6C24.0113 67.0267 29.0046 62.5 33.3913 58.02C37.8713 53.4467 41.4179 49.0133 44.0313 44.72C46.6446 40.3333 47.9513 36.1333 47.9513 32.12C47.9513 29.7867 47.4846 27.64 46.5513 25.68C45.7113 23.6267 44.3579 22.04 42.4913 20.92C40.7179 19.7067 38.3379 19.1 35.3513 19.1C32.4579 19.1 29.9846 19.7533 27.9313 21.06C25.8779 22.3667 24.3379 24.1867 23.3113 26.52C22.2846 28.76 21.7713 31.3733 21.7713 34.36H1.47125C1.75125 26.8933 3.43125 20.6867 6.51125 15.74C9.59125 10.7933 13.6979 7.15333 18.8313 4.81999C24.0579 2.48666 29.7979 1.32 36.0513 1.32C43.3313 1.32 49.3979 2.67333 54.2513 5.38C59.1046 7.99333 62.7446 11.54 65.1713 16.02C67.6913 20.4067 68.9512 25.3067 68.9512 30.72C68.9512 35.0133 68.2046 39.1667 66.7113 43.18C65.2179 47.1 63.1646 50.9267 60.5513 54.66C57.9379 58.3 54.9513 61.8467 51.5913 65.3C48.3246 68.66 44.8713 71.9267 41.2313 75.1C37.5913 78.18 33.9979 81.12 30.4513 83.92H70.9113V101H1.61125Z" fill="#CECEFB" fill-opacity="0.1"/>
<path d="M1.61125 101H0.61125V102H1.61125V101ZM1.61125 85.46L0.977322 84.6866L0.61125 84.9867V85.46H1.61125ZM18.4113 71.6L17.7787 70.8254L17.7724 70.8307L18.4113 71.6ZM33.3913 58.02L32.6769 57.3202L32.6767 57.3204L33.3913 58.02ZM44.0313 44.72L44.8855 45.24L44.8904 45.2318L44.0313 44.72ZM46.5513 25.68L45.6257 26.0586L45.6363 26.0846L45.6484 26.1099L46.5513 25.68ZM42.4913 20.92L41.9266 21.7453L41.9512 21.7621L41.9768 21.7775L42.4913 20.92ZM27.9313 21.06L28.4681 21.9037V21.9037L27.9313 21.06ZM23.3113 26.52L24.2203 26.9367L24.2235 26.9297L24.2266 26.9227L23.3113 26.52ZM21.7713 34.36V35.36H22.7713V34.36H21.7713ZM1.47125 34.36L0.471953 34.3225L0.433048 35.36H1.47125V34.36ZM6.51125 15.74L7.36015 16.2686V16.2686L6.51125 15.74ZM18.8313 4.82L18.4236 3.90684L18.4174 3.90963L18.8313 4.82ZM54.2513 5.38L53.7642 6.25336L53.7706 6.25696L53.7772 6.26047L54.2513 5.38ZM65.1713 16.02L64.292 16.4963L64.2979 16.5073L64.3042 16.5181L65.1713 16.02ZM66.7113 43.18L67.6458 43.536L67.6485 43.5287L66.7113 43.18ZM60.5513 54.66L61.3636 55.2432L61.3705 55.2335L60.5513 54.66ZM51.5913 65.3L50.8745 64.6026L50.8743 64.6029L51.5913 65.3ZM41.2313 75.1L41.8772 75.8634L41.8828 75.8586L41.8884 75.8538L41.2313 75.1ZM30.4513 83.92L29.8316 83.1351L27.5708 84.92H30.4513V83.92ZM70.9113 83.92H71.9113V82.92H70.9113V83.92ZM70.9113 101V102H71.9113V101H70.9113ZM2.61125 101V85.46H0.61125V101H2.61125ZM2.24518 86.2334C7.94013 81.5654 13.5418 76.944 19.0502 72.3693L17.7724 70.8307C12.2674 75.4026 6.66904 80.0213 0.977322 84.6866L2.24518 86.2334ZM19.0438 72.3745C24.6682 67.7812 29.6896 63.2297 34.1058 58.7196L32.6767 57.3204C28.3196 61.7703 23.3543 66.2721 17.7787 70.8255L19.0438 72.3745ZM34.1056 58.7198C38.6252 54.1061 42.2235 49.6132 44.8855 45.2399L43.1771 44.2001C40.6124 48.4134 37.1173 52.7873 32.6769 57.3202L34.1056 58.7198ZM44.8904 45.2318C47.5712 40.7319 48.9513 36.3564 48.9513 32.12H46.9513C46.9513 35.9103 45.718 39.9348 43.1722 44.2082L44.8904 45.2318ZM48.9513 32.12C48.9513 29.6493 48.4561 27.3542 47.4541 25.2501L45.6484 26.1099C46.5131 27.9258 46.9513 29.9241 46.9513 32.12H48.9513ZM47.4768 25.3014C46.5567 23.0523 45.0613 21.2958 43.0057 20.0625L41.9768 21.7775C43.6545 22.7842 44.8658 24.201 45.6257 26.0586L47.4768 25.3014ZM43.0559 20.0947C41.0629 18.7311 38.4633 18.1 35.3513 18.1V20.1C38.2125 20.1 40.3729 20.6823 41.9266 21.7453L43.0559 20.0947ZM35.3513 18.1C32.3041 18.1 29.6363 18.7896 27.3944 20.2163L28.4681 21.9037C30.3329 20.717 32.6117 20.1 35.3513 20.1V18.1ZM27.3944 20.2163C25.1659 21.6345 23.4983 23.6118 22.3959 26.1173L24.2266 26.9227C25.1775 24.7615 26.59 23.0988 28.4681 21.9037L27.3944 20.2163ZM22.4022 26.1033C21.3043 28.4988 20.7713 31.2594 20.7713 34.36H22.7713C22.7713 31.4872 23.2649 29.0212 24.2203 26.9367L22.4022 26.1033ZM21.7713 33.36H1.47125V35.36H21.7713V33.36ZM2.47055 34.3975C2.74583 27.0567 4.39465 21.0313 7.36015 16.2686L5.66235 15.2114C2.46785 20.342 0.756675 26.7299 0.471953 34.3225L2.47055 34.3975ZM7.36015 16.2686C10.3396 11.4833 14.2975 7.97926 19.2451 5.73036L18.4174 3.90963C13.0984 6.32739 8.84288 10.1033 5.66235 15.2114L7.36015 16.2686ZM19.2389 5.73313C24.3258 3.46219 29.9253 2.32 36.0513 2.32V0.319998C29.6706 0.319998 23.79 1.51114 18.4236 3.90686L19.2389 5.73313ZM36.0513 2.32C43.212 2.32 49.0989 3.65157 53.7642 6.25336L54.7383 4.50663C49.6969 1.69509 43.4505 0.319998 36.0513 0.319998V2.32ZM53.7772 6.26047C58.4736 8.78932 61.9657 12.2017 64.292 16.4963L66.0505 15.5437C63.5234 10.8783 59.7356 7.19733 54.7253 4.49953L53.7772 6.26047ZM64.3042 16.5181C66.731 20.7426 67.9512 25.4688 67.9512 30.72H69.9512C69.9512 25.1445 68.6515 20.0707 66.0384 15.5219L64.3042 16.5181ZM67.9512 30.72C67.9512 34.8946 67.2257 38.9298 65.774 42.8313L67.6485 43.5287C69.1834 39.4035 69.9512 35.1321 69.9512 30.72H67.9512ZM65.7768 42.824C64.3152 46.6607 62.3022 50.4149 59.732 54.0865L61.3705 55.2335C64.027 51.4384 66.1207 47.5393 67.6457 43.536L65.7768 42.824ZM59.7389 54.0768C57.1567 57.6735 54.2024 61.1823 50.8745 64.6026L52.308 65.9974C55.7001 62.511 58.7192 58.9265 61.3636 55.2432L59.7389 54.0768ZM50.8743 64.6029C47.6273 67.9426 44.194 71.1904 40.5741 74.3462L41.8884 75.8538C45.5485 72.6629 49.0218 69.3774 52.3082 65.9971L50.8743 64.6029ZM40.5853 74.3366C36.9535 77.4097 33.3689 80.3425 29.8316 83.1351L31.0709 84.7049C34.6269 81.8975 38.229 78.9503 41.8772 75.8634L40.5853 74.3366ZM30.4513 84.92H70.9113V82.92H30.4513V84.92ZM69.9113 83.92V101H71.9113V83.92H69.9113ZM70.9113 100H1.61125V102H70.9113V100Z" fill="#CECEFB" fill-opacity="0.4"/>
</svg>
