<svg width="73" height="104" viewBox="0 0 73 104" fill="none" xmlns="http://www.w3.org/2000/svg">
<path d="M36.7605 102.68C30.3205 102.68 24.3938 101.513 18.9805 99.18C13.6605 96.8467 9.36714 93.3 6.10047 88.54C2.92714 83.6867 1.24714 77.5267 1.06047 70.06H21.5005C21.5938 72.9533 22.2471 75.5667 23.4605 77.9C24.6738 80.14 26.4005 81.9133 28.6405 83.22C30.8805 84.5267 33.5871 85.18 36.7605 85.18C39.6538 85.18 42.1271 84.62 44.1805 83.5C46.3271 82.2867 47.9138 80.7467 48.9405 78.88C50.0605 76.92 50.6205 74.68 50.6205 72.16C50.6205 69.2667 49.9205 66.84 48.5205 64.88C47.1205 62.8267 45.1138 61.2867 42.5005 60.26C39.8871 59.14 36.8538 58.58 33.4005 58.58H26.1205V41.5H33.4005C37.4138 41.5 40.9138 40.5667 43.9005 38.7C46.8871 36.74 48.3805 33.7533 48.3805 29.74C48.3805 26.38 47.3071 23.7667 45.1605 21.9C43.0138 19.94 40.1671 18.96 36.6205 18.96C32.3271 18.96 29.0605 20.22 26.8205 22.74C24.5805 25.1667 23.3205 28.1067 23.0405 31.56H2.74047C3.02047 25.2133 4.60714 19.8 7.50047 15.32C10.3938 10.7467 14.3138 7.29333 19.2605 4.95999C24.3005 2.53333 30.0871 1.32 36.6205 1.32C43.5271 1.32 49.4071 2.53333 54.2605 4.95999C59.1138 7.38666 62.7538 10.6533 65.1805 14.76C67.7005 18.7733 68.9605 23.16 68.9605 27.92C68.9605 31.9333 68.2138 35.4333 66.7205 38.42C65.2271 41.3133 63.2671 43.74 60.8405 45.7C58.4138 47.5667 55.8471 48.92 53.1405 49.76C56.7805 50.5067 59.9071 51.9533 62.5205 54.1C65.2271 56.1533 67.3271 58.8133 68.8205 62.08C70.3138 65.2533 71.0605 68.8933 71.0605 73C71.0605 78.4133 69.7071 83.4067 67.0005 87.98C64.3871 92.46 60.5138 96.0533 55.3805 98.76C50.3405 101.373 44.1338 102.68 36.7605 102.68Z" fill="#CECEFB" fill-opacity="0.1"/>
<path d="M18.9805 99.18L18.5788 100.096L18.5846 100.098L18.9805 99.18ZM6.10047 88.54L5.2635 89.0872L5.26962 89.0966L5.27596 89.1058L6.10047 88.54ZM1.06047 70.06V69.06H0.0351567L0.0607815 70.085L1.06047 70.06ZM21.5005 70.06L22.4999 70.0278L22.4687 69.06H21.5005V70.06ZM23.4605 77.9L22.5733 78.3614L22.5772 78.3689L22.5812 78.3763L23.4605 77.9ZM28.6405 83.22L29.1443 82.3562L28.6405 83.22ZM44.1805 83.5L44.6593 84.3779L44.666 84.3743L44.6725 84.3706L44.1805 83.5ZM48.9405 78.88L48.0722 78.3839L48.0682 78.3909L48.0643 78.3981L48.9405 78.88ZM48.5205 64.88L47.6942 65.4433L47.7004 65.4524L47.7067 65.4612L48.5205 64.88ZM42.5005 60.26L42.1066 61.1791L42.1206 61.1852L42.1348 61.1908L42.5005 60.26ZM26.1205 58.58H25.1205V59.58H26.1205V58.58ZM26.1205 41.5V40.5H25.1205V41.5H26.1205ZM43.9005 38.7L44.4305 39.548L44.4399 39.5421L44.4491 39.536L43.9005 38.7ZM45.1605 21.9L44.4862 22.6385L44.4951 22.6467L44.5043 22.6546L45.1605 21.9ZM26.8205 22.74L27.5553 23.4183L27.5616 23.4114L27.5679 23.4044L26.8205 22.74ZM23.0405 31.56V32.56H23.9627L24.0372 31.6408L23.0405 31.56ZM2.74047 31.56L1.74144 31.5159L1.69538 32.56H2.74047V31.56ZM7.50047 15.32L8.34055 15.8625L8.34555 15.8546L7.50047 15.32ZM19.2605 4.95999L19.6871 5.86445L19.6943 5.861L19.2605 4.95999ZM54.2605 4.95999L54.7077 4.06557L54.2605 4.95999ZM65.1805 14.76L64.3195 15.2687L64.3264 15.2803L64.3336 15.2918L65.1805 14.76ZM66.7205 38.42L67.6092 38.8787L67.6149 38.8672L66.7205 38.42ZM60.8405 45.7L61.4502 46.4926L61.4596 46.4854L61.4688 46.4779L60.8405 45.7ZM53.1405 49.76L52.8441 48.8049L52.9395 50.7396L53.1405 49.76ZM62.5205 54.1L61.8857 54.8727L61.9007 54.885L61.9161 54.8967L62.5205 54.1ZM68.8205 62.08L67.9109 62.4958L67.9156 62.5058L68.8205 62.08ZM67.0005 87.98L66.1399 87.4707L66.1367 87.4761L67.0005 87.98ZM55.3805 98.76L55.8408 99.6478L55.8469 99.6446L55.3805 98.76ZM36.7605 101.68C30.4439 101.68 24.6535 100.536 19.3763 98.2617L18.5846 100.098C24.1341 102.49 30.197 103.68 36.7605 103.68V101.68ZM19.3821 98.2642C14.2318 96.0053 10.0854 92.5793 6.92498 87.9742L5.27596 89.1058C8.64887 94.0207 13.0891 97.688 18.5788 100.096L19.3821 98.2642ZM6.93744 87.9928C3.89126 83.3339 2.24349 77.3685 2.06016 70.035L0.0607815 70.085C0.250776 77.6848 1.96301 84.0394 5.2635 89.0872L6.93744 87.9928ZM1.06047 71.06H21.5005V69.06H1.06047V71.06ZM20.501 70.0922C20.5987 73.1199 21.2841 75.8823 22.5733 78.3614L24.3477 77.4386C23.2101 75.2511 22.5889 72.7867 22.4999 70.0278L20.501 70.0922ZM22.5812 78.3763C23.8834 80.7804 25.7413 82.6865 28.1366 84.0838L29.1443 82.3562C27.0596 81.1401 25.4642 79.4996 24.3398 77.4237L22.5812 78.3763ZM28.1366 84.0838C30.5603 85.4976 33.4495 86.18 36.7605 86.18V84.18C33.7248 84.18 31.2006 83.5557 29.1443 82.3562L28.1366 84.0838ZM36.7605 86.18C39.782 86.18 42.4282 85.5949 44.6593 84.3779L43.7016 82.6221C41.8261 83.6451 39.5256 84.18 36.7605 84.18V86.18ZM44.6725 84.3706C46.9549 83.0805 48.6872 81.4155 49.8167 79.3619L48.0643 78.3981C47.1404 80.0778 45.6994 81.4928 43.6884 82.6294L44.6725 84.3706ZM49.8087 79.3761C51.0248 77.248 51.6205 74.8333 51.6205 72.16H49.6205C49.6205 74.5267 49.0962 76.592 48.0722 78.3839L49.8087 79.3761ZM51.6205 72.16C51.6205 69.1011 50.8781 66.4602 49.3342 64.2988L47.7067 65.4612C48.9629 67.2198 49.6205 69.4322 49.6205 72.16H51.6205ZM49.3467 64.3167C47.8192 62.0764 45.6413 60.4195 42.8661 59.3292L42.1348 61.1908C44.5863 62.1539 46.4217 63.5769 47.6942 65.4433L49.3467 64.3167ZM42.8944 59.3409C40.1329 58.1574 36.9609 57.58 33.4005 57.58V59.58C36.7468 59.58 39.6414 60.1226 42.1066 61.1791L42.8944 59.3409ZM33.4005 57.58H26.1205V59.58H33.4005V57.58ZM27.1205 58.58V41.5H25.1205V58.58H27.1205ZM26.1205 42.5H33.4005V40.5H26.1205V42.5ZM33.4005 42.5C37.5744 42.5 41.2636 41.5273 44.4305 39.548L43.3705 37.852C40.564 39.606 37.2532 40.5 33.4005 40.5V42.5ZM44.4491 39.536C47.7561 37.3659 49.3805 34.0413 49.3805 29.74H47.3805C47.3805 33.4653 46.0182 36.1141 43.3518 37.8639L44.4491 39.536ZM49.3805 29.74C49.3805 26.1483 48.2218 23.2368 45.8167 21.1454L44.5043 22.6546C46.3925 24.2965 47.3805 26.6117 47.3805 29.74H49.3805ZM45.8347 21.1615C43.4652 18.9981 40.359 17.96 36.6205 17.96V19.96C39.9753 19.96 42.5624 20.8819 44.4862 22.6385L45.8347 21.1615ZM36.6205 17.96C32.125 17.96 28.552 19.2868 26.0731 22.0756L27.5679 23.4044C29.5689 21.1532 32.5292 19.96 36.6205 19.96V17.96ZM26.0857 22.0617C23.6862 24.6611 22.3409 27.8148 22.0437 31.4792L24.0372 31.6408C24.3001 28.3985 25.4747 25.6722 27.5553 23.4183L26.0857 22.0617ZM23.0405 30.56H2.74047V32.56H23.0405V30.56ZM3.7395 31.6041C4.01318 25.4007 5.56041 20.1672 8.34051 15.8625L6.66043 14.7775C3.65386 19.4328 2.02776 25.026 1.74144 31.5159L3.7395 31.6041ZM8.34555 15.8546C11.1362 11.4436 14.9103 8.11765 19.6871 5.86442L18.8338 4.05556C13.7174 6.46901 9.65141 10.0497 6.65539 14.7854L8.34555 15.8546ZM19.6943 5.861C24.578 3.50957 30.2122 2.32 36.6205 2.32V0.319998C29.962 0.319998 24.0229 1.55709 18.8267 4.05899L19.6943 5.861ZM36.6205 2.32C43.413 2.32 49.1314 3.5135 53.8133 5.85442L54.7077 4.06557C49.6829 1.55316 43.6412 0.319998 36.6205 0.319998V2.32ZM53.8133 5.85442C58.5188 8.20719 62.0038 11.3497 64.3195 15.2687L66.0414 14.2513C63.5038 9.95693 59.7088 6.56614 54.7077 4.06557L53.8133 5.85442ZM64.3336 15.2918C66.7531 19.145 67.9605 23.3472 67.9605 27.92H69.9605C69.9605 22.9728 68.6479 18.4016 66.0274 14.2282L64.3336 15.2918ZM67.9605 27.92C67.9605 31.8091 67.2373 35.1503 65.826 37.9728L67.6149 38.8672C69.1903 35.7164 69.9605 32.0576 69.9605 27.92H67.9605ZM65.8319 37.9614C64.3993 40.7369 62.5261 43.0531 60.2121 44.9221L61.4688 46.4779C64.0082 44.4269 66.0549 41.8898 67.6091 38.8786L65.8319 37.9614ZM60.2308 44.9074C57.8905 46.7076 55.4287 48.0028 52.8441 48.8049L53.4369 50.7151C56.2656 49.8372 58.9371 48.4258 61.4502 46.4926L60.2308 44.9074ZM52.9395 50.7396C56.4363 51.4569 59.4101 52.8392 61.8857 54.8727L63.1552 53.3273C60.4042 51.0675 57.1246 49.5564 53.3414 48.7804L52.9395 50.7396ZM61.9161 54.8967C64.4836 56.8445 66.4823 59.3704 67.911 62.4958L69.7299 61.6642C68.172 58.2562 65.9707 55.4622 63.1249 53.3033L61.9161 54.8967ZM67.9156 62.5058C69.3365 65.525 70.0605 69.0155 70.0605 73H72.0605C72.0605 68.7711 71.2911 64.9816 69.7253 61.6542L67.9156 62.5058ZM70.0605 73C70.0605 78.2376 68.7535 83.0546 66.1399 87.4707L67.861 88.4893C70.6608 83.7588 72.0605 78.589 72.0605 73H70.0605ZM66.1367 87.4761C63.6285 91.7759 59.9022 95.2453 54.9141 97.8754L55.8469 99.6446C61.1254 96.8613 65.1458 93.1441 67.8643 88.4839L66.1367 87.4761ZM54.9202 97.8722C50.0585 100.393 44.0199 101.68 36.7605 101.68V103.68C44.2477 103.68 50.6225 102.354 55.8408 99.6478L54.9202 97.8722Z" fill="#CECEFB" fill-opacity="0.4"/>
</svg>
