<svg width="84" height="100" viewBox="0 0 84 100" fill="none" xmlns="http://www.w3.org/2000/svg">
<path d="M49.404 99V82.2H1.80398V65.4L46.744 0.999993H70.404V64H82.584V82.2H70.404V99H49.404ZM24.064 64H50.804V24.1L24.064 64Z" fill="#CECEFB" fill-opacity="0.1"/>
<path d="M49.404 99H48.404V100H49.404V99ZM49.404 82.2H50.404V81.2H49.404V82.2ZM1.80398 82.2H0.803985V83.2H1.80398V82.2ZM1.80398 65.4L0.983916 64.8277L0.803985 65.0856V65.4H1.80398ZM46.744 0.999992V-7.62939e-06H46.2224L45.9239 0.427729L46.744 0.999992ZM70.404 0.999992H71.404V-7.62939e-06H70.404V0.999992ZM70.404 64H69.404V65H70.404V64ZM82.584 64H83.584V63H82.584V64ZM82.584 82.2V83.2H83.584V82.2H82.584ZM70.404 82.2V81.2H69.404V82.2H70.404ZM70.404 99V100H71.404V99H70.404ZM24.064 64L23.2333 63.4433L22.19 65H24.064V64ZM50.804 64V65H51.804V64H50.804ZM50.804 24.1H51.804V20.8116L49.9733 23.5433L50.804 24.1ZM50.404 99V82.2H48.404V99H50.404ZM49.404 81.2H1.80398V83.2H49.404V81.2ZM2.80398 82.2V65.4H0.803985V82.2H2.80398ZM2.62405 65.9723L47.5641 1.57226L45.9239 0.427729L0.983916 64.8277L2.62405 65.9723ZM46.744 1.99999H70.404V-7.62939e-06H46.744V1.99999ZM69.404 0.999992V64H71.404V0.999992H69.404ZM70.404 65H82.584V63H70.404V65ZM81.584 64V82.2H83.584V64H81.584ZM82.584 81.2H70.404V83.2H82.584V81.2ZM69.404 82.2V99H71.404V82.2H69.404ZM70.404 98H49.404V100H70.404V98ZM24.064 65H50.804V63H24.064V65ZM51.804 64V24.1H49.804V64H51.804ZM49.9733 23.5433L23.2333 63.4433L24.8947 64.5567L51.6347 24.6567L49.9733 23.5433Z" fill="#CECEFB" fill-opacity="0.4"/>
</svg>
