<svg width="74" height="102" viewBox="0 0 74 102" fill="none" xmlns="http://www.w3.org/2000/svg">
<path d="M37.33 100.68C29.9567 100.68 23.6567 99.42 18.43 96.9C13.2033 94.2867 9.14333 90.7867 6.25 86.4C3.35667 81.92 1.72333 76.88 1.35 71.28H21.79C22.35 74.4533 24.03 77.2067 26.83 79.54C29.7233 81.78 33.2233 82.9 37.33 82.9C40.3167 82.9 42.93 82.1533 45.17 80.66C47.5033 79.0733 49.2767 76.9733 50.49 74.36C51.7967 71.6533 52.45 68.6667 52.45 65.4C52.45 61.9467 51.7967 59.0067 50.49 56.58C49.1833 54.06 47.41 52.1933 45.17 50.98C42.93 49.6733 40.3633 49.02 37.47 49.02C34.0167 49.02 30.9833 49.9067 28.37 51.68C25.7567 53.36 23.89 55.4133 22.77 57.84H2.47L10.59 0.999993H66.59V19.34H26.13L22.49 38.66C24.45 36.7 27.0633 35.1133 30.33 33.9C33.69 32.6867 37.3767 32.08 41.39 32.08C46.8033 32.08 51.47 33.0133 55.39 34.88C59.31 36.6533 62.5767 39.1267 65.19 42.3C67.8033 45.4733 69.7167 49.02 70.93 52.94C72.1433 56.86 72.75 60.92 72.75 65.12C72.75 70.44 71.8633 75.2933 70.09 79.68C68.3167 83.9733 65.8433 87.7067 62.67 90.88C59.4967 93.96 55.7167 96.3867 51.33 98.16C47.0367 99.84 42.37 100.68 37.33 100.68Z" fill="#CECEFB" fill-opacity="0.1"/>
<path d="M18.43 96.9L17.9828 97.7944L17.9892 97.7976L17.9957 97.8008L18.43 96.9ZM6.25 86.4L5.40992 86.9426L5.41523 86.9506L6.25 86.4ZM1.35 71.28V70.28H0.281115L0.352216 71.3465L1.35 71.28ZM21.79 71.28L22.7748 71.1062L22.629 70.28H21.79V71.28ZM26.83 79.54L26.1898 80.3082L26.2036 80.3197L26.2178 80.3307L26.83 79.54ZM45.17 80.66L45.7247 81.4921L45.7323 81.4869L45.17 80.66ZM50.49 74.36L49.5895 73.9252L49.5862 73.932L49.583 73.9389L50.49 74.36ZM50.49 56.58L49.6022 57.0403L49.6058 57.0472L49.6095 57.0541L50.49 56.58ZM45.17 50.98L44.6661 51.8438L44.6798 51.8517L44.6937 51.8593L45.17 50.98ZM28.37 51.68L28.9108 52.5212L28.9212 52.5145L28.9315 52.5075L28.37 51.68ZM22.77 57.84V58.84H23.4098L23.678 58.2591L22.77 57.84ZM2.47 57.84L1.48005 57.6986L1.31699 58.84H2.47V57.84ZM10.59 0.999992V-7.62939e-06H9.72271L9.60005 0.858572L10.59 0.999992ZM66.59 0.999992H67.59V-7.62939e-06H66.59V0.999992ZM66.59 19.34V20.34H67.59V19.34H66.59ZM26.13 19.34V18.34H25.3008L25.1473 19.1549L26.13 19.34ZM22.49 38.66L21.5073 38.4748L20.9079 41.6563L23.1971 39.3671L22.49 38.66ZM30.33 33.9L29.9903 32.9594L29.9818 32.9626L30.33 33.9ZM55.39 34.88L54.9601 35.7829L54.9689 35.7871L54.9778 35.7911L55.39 34.88ZM65.19 42.3L65.9619 41.6643V41.6643L65.19 42.3ZM70.93 52.94L71.8853 52.6443L70.93 52.94ZM70.09 79.68L71.0143 80.0618L71.0171 80.0548L70.09 79.68ZM62.67 90.88L63.3665 91.5976L63.3718 91.5924L63.3771 91.5871L62.67 90.88ZM51.33 98.16L51.6944 99.0913L51.7048 99.0871L51.33 98.16ZM37.33 99.68C30.0676 99.68 23.924 98.4387 18.8643 95.9992L17.9957 97.8008C23.3894 100.401 29.8457 101.68 37.33 101.68V99.68ZM18.8772 96.0056C13.7897 93.4618 9.87084 90.0734 7.08477 85.8494L5.41523 86.9506C8.41582 91.4999 12.617 95.1115 17.9828 97.7944L18.8772 96.0056ZM7.09004 85.8575C4.29374 81.5277 2.71043 76.6532 2.34779 71.2135L0.352216 71.3465C0.736235 77.1068 2.41959 82.3123 5.40996 86.9425L7.09004 85.8575ZM1.35 72.28H21.79V70.28H1.35V72.28ZM20.8052 71.4538C21.4116 74.8902 23.2336 77.8447 26.1898 80.3082L27.4702 78.7718C24.8264 76.5686 23.2884 74.0164 22.7748 71.1062L20.8052 71.4538ZM26.2178 80.3307C29.3077 82.7229 33.0303 83.9 37.33 83.9V81.9C33.4164 81.9 30.139 80.8371 27.4422 78.7493L26.2178 80.3307ZM37.33 83.9C40.4917 83.9 43.3027 83.1067 45.7247 81.4921L44.6153 79.8279C42.5573 81.2 40.1417 81.9 37.33 81.9V83.9ZM45.7323 81.4869C48.2184 79.7964 50.1093 77.5547 51.397 74.7811L49.583 73.9389C48.4441 76.3919 46.7883 78.3503 44.6077 79.8331L45.7323 81.4869ZM51.3906 74.7947C52.7682 71.941 53.45 68.8039 53.45 65.4H51.45C51.45 68.5294 50.8251 71.3657 49.5895 73.9252L51.3906 74.7947ZM53.45 65.4C53.45 61.8223 52.773 58.7106 51.3705 56.1059L49.6095 57.0541C50.8203 59.3027 51.45 62.0711 51.45 65.4H53.45ZM51.3778 56.1197C49.9899 53.4431 48.0821 51.4201 45.6463 50.1007L44.6937 51.8593C46.7379 52.9666 48.3768 54.6769 49.6022 57.0403L51.3778 56.1197ZM45.6739 50.1162C43.2638 48.7103 40.5194 48.02 37.47 48.02V50.02C40.2073 50.02 42.5962 50.6363 44.6661 51.8438L45.6739 50.1162ZM37.47 48.02C33.836 48.02 30.603 48.9563 27.8085 50.8525L28.9315 52.5075C31.3637 50.8571 34.1973 50.02 37.47 50.02V48.02ZM27.8292 50.8388C25.0824 52.6047 23.074 54.7949 21.862 57.4209L23.678 58.2591C24.706 56.0317 26.431 54.1153 28.9108 52.5212L27.8292 50.8388ZM22.77 56.84H2.47V58.84H22.77V56.84ZM3.45995 57.9814L11.58 1.14141L9.60005 0.858572L1.48005 57.6986L3.45995 57.9814ZM10.59 1.99999H66.59V-7.62939e-06H10.59V1.99999ZM65.59 0.999992V19.34H67.59V0.999992H65.59ZM66.59 18.34H26.13V20.34H66.59V18.34ZM25.1473 19.1549L21.5073 38.4748L23.4727 38.8451L27.1127 19.5251L25.1473 19.1549ZM23.1971 39.3671C25.0328 37.5314 27.5127 36.0132 30.6782 34.8374L29.9818 32.9626C26.614 34.2135 23.8672 35.8686 21.7829 37.9529L23.1971 39.3671ZM30.6696 34.8405C33.9082 33.6711 37.4783 33.08 41.39 33.08V31.08C37.275 31.08 33.4719 31.7022 29.9904 32.9594L30.6696 34.8405ZM41.39 33.08C46.6904 33.08 51.2033 33.9939 54.9601 35.7829L55.8199 33.9771C51.7367 32.0327 46.9163 31.08 41.39 31.08V33.08ZM54.9778 35.7911C58.7651 37.5044 61.9066 39.886 64.4181 42.9357L65.9619 41.6643C63.2468 38.3673 59.8549 35.8023 55.8022 33.9689L54.9778 35.7911ZM64.4181 42.9357C66.9489 46.0089 68.7999 49.4401 69.9747 53.2357L71.8853 52.6443C70.6334 48.5999 68.6578 44.9378 65.9619 41.6643L64.4181 42.9357ZM69.9747 53.2357C71.1577 57.0577 71.75 61.0179 71.75 65.12H73.75C73.75 60.8221 73.129 56.6623 71.8853 52.6443L69.9747 53.2357ZM71.75 65.12C71.75 70.3275 70.8825 75.0515 69.1629 79.3052L71.0171 80.0548C72.8442 75.5351 73.75 70.5525 73.75 65.12H71.75ZM69.1657 79.2982C67.4409 83.4742 65.0399 87.0959 61.9629 90.1729L63.3771 91.5871C66.6468 88.3174 69.1925 84.4724 71.0143 80.0618L69.1657 79.2982ZM61.9735 90.1624C58.8992 93.1463 55.2306 95.5045 50.9552 97.2329L51.7048 99.0871C56.2028 97.2688 60.0941 94.7737 63.3665 91.5976L61.9735 90.1624ZM50.9656 97.2288C46.7988 98.8593 42.257 99.68 37.33 99.68V101.68C42.483 101.68 47.2746 100.821 51.6944 99.0912L50.9656 97.2288Z" fill="#CECEFB" fill-opacity="0.4"/>
</svg>
