<svg width="77" height="104" viewBox="0 0 77 104" fill="none" xmlns="http://www.w3.org/2000/svg">
<path d="M41.258 102.68C33.7914 102.68 27.4914 101.327 22.358 98.62C17.2247 95.82 13.118 92.1333 10.038 87.56C6.95805 82.9867 4.71805 77.9 3.31805 72.3C2.01138 66.6067 1.35805 60.82 1.35805 54.94C1.35805 43.9267 2.89805 34.4533 5.97805 26.52C9.05805 18.4933 13.4914 12.2867 19.278 7.9C25.158 3.51333 32.2514 1.32 40.5581 1.32C47.6514 1.32 53.6247 2.67333 58.478 5.38C63.3314 8.08666 67.0647 11.6333 69.678 16.02C72.2914 20.4067 73.8314 25.0733 74.2981 30.02H54.698C54.0447 26.2867 52.458 23.44 49.9381 21.48C47.5114 19.4267 44.338 18.4 40.418 18.4C36.6847 18.4 33.4647 19.5667 30.758 21.9C28.0514 24.14 25.9514 27.5 24.458 31.98C22.9647 36.46 22.1247 42.0133 21.938 48.64C21.938 48.7333 21.938 48.8733 21.938 49.06C21.938 49.2467 21.938 49.3867 21.938 49.48C23.338 47.0533 25.2514 44.9533 27.678 43.18C30.1047 41.4067 32.8114 40.0067 35.798 38.98C38.7847 37.9533 41.8647 37.44 45.0381 37.44C50.4514 37.44 55.4914 38.7467 60.158 41.36C64.8247 43.88 68.5581 47.5667 71.3581 52.42C74.2514 57.18 75.6981 62.8267 75.6981 69.36C75.6981 75.4267 74.2047 81.0267 71.2181 86.16C68.3247 91.2 64.2647 95.2133 59.0381 98.2C53.9047 101.187 47.978 102.68 41.258 102.68ZM40.138 84.76C43.1247 84.76 45.7847 84.1533 48.118 82.94C50.4514 81.6333 52.2714 79.86 53.578 77.62C54.978 75.38 55.678 72.86 55.678 70.06C55.678 66.98 54.978 64.3667 53.578 62.22C52.2714 59.98 50.4047 58.2533 47.9781 57.04C45.6447 55.7333 42.938 55.08 39.858 55.08C36.8714 55.08 34.2114 55.6867 31.878 56.9C29.5447 58.1133 27.678 59.84 26.278 62.08C24.878 64.32 24.178 66.8867 24.178 69.78C24.178 72.6733 24.878 75.2867 26.278 77.62C27.678 79.86 29.5447 81.6333 31.878 82.94C34.3047 84.1533 37.058 84.76 40.138 84.76Z" fill="#CECEFB" fill-opacity="0.1"/>
<path d="M22.358 98.62L21.8791 99.498L21.8916 99.5046L22.358 98.62ZM10.038 87.56L9.20861 88.1186L10.038 87.56ZM3.31805 72.3L2.34339 72.5237L2.34555 72.5331L2.3479 72.5425L3.31805 72.3ZM5.97805 26.52L6.91026 26.8819L6.91167 26.8783L5.97805 26.52ZM19.278 7.9L18.6801 7.09845L18.6739 7.10309L19.278 7.9ZM69.678 16.02L70.5371 15.5082V15.5082L69.678 16.02ZM74.2981 30.02V31.02H75.3968L75.2936 29.9261L74.2981 30.02ZM54.698 30.02L53.713 30.1924L53.8578 31.02H54.698V30.02ZM49.938 21.48L49.2921 22.2434L49.3078 22.2567L49.3241 22.2693L49.938 21.48ZM30.758 21.9L31.3956 22.6704L31.4034 22.664L31.411 22.6574L30.758 21.9ZM24.458 31.98L25.4067 32.2962L24.458 31.98ZM21.938 48.64L20.9384 48.6118L20.938 48.6259V48.64H21.938ZM21.938 49.48H20.938V53.2144L22.8042 49.9797L21.938 49.48ZM27.6781 43.18L28.2681 43.9874L27.6781 43.18ZM60.1581 41.36L59.6694 42.2325L59.6761 42.2363L59.6829 42.2399L60.1581 41.36ZM71.358 52.42L70.4919 52.9197L70.4976 52.9296L70.5035 52.9394L71.358 52.42ZM71.2181 86.16L70.3537 85.6571L70.3508 85.6621L71.2181 86.16ZM59.038 98.2L58.5419 97.3317L58.5352 97.3357L59.038 98.2ZM48.118 82.94L48.5794 83.8272L48.5931 83.8201L48.6067 83.8125L48.118 82.94ZM53.578 77.62L52.7301 77.09L52.722 77.1029L52.7143 77.1161L53.578 77.62ZM53.578 62.22L52.7143 62.7239L52.7268 62.7454L52.7404 62.7663L53.578 62.22ZM47.9781 57.04L47.4894 57.9125L47.5099 57.924L47.5308 57.9344L47.9781 57.04ZM31.878 56.9L31.4167 56.0128L31.878 56.9ZM26.278 62.08L25.43 61.55V61.55L26.278 62.08ZM26.278 77.62L25.4206 78.1345L25.4252 78.1423L25.43 78.15L26.278 77.62ZM31.878 82.94L31.3894 83.8125L31.4099 83.824L31.4308 83.8344L31.878 82.94ZM41.258 101.68C33.9087 101.68 27.7787 100.348 22.8245 97.7354L21.8916 99.5046C27.2041 102.306 33.6741 103.68 41.258 103.68V101.68ZM22.8369 97.7421C17.8356 95.0141 13.8525 91.4337 10.8675 87.0014L9.20861 88.1186C12.3836 92.833 16.6139 96.6259 21.8792 99.4979L22.8369 97.7421ZM10.8675 87.0014C7.8554 82.5289 5.66134 77.5501 4.28819 72.0575L2.3479 72.5425C3.77475 78.2499 6.06069 83.4444 9.20861 88.1186L10.8675 87.0014ZM4.29271 72.0763C3.00299 66.4568 2.35805 60.7452 2.35805 54.94H0.358047C0.358047 60.8948 1.01977 66.7565 2.34339 72.5237L4.29271 72.0763ZM2.35805 54.94C2.35805 44.0158 3.88609 34.6714 6.91026 26.8819L5.04584 26.1581C1.91 34.2352 0.358047 43.8375 0.358047 54.94H2.35805ZM6.91167 26.8783C9.93731 18.9933 14.2695 12.9517 19.8822 8.6969L18.6739 7.10309C12.7133 11.6217 8.17878 17.9934 5.04442 26.1617L6.91167 26.8783ZM19.876 8.70152C25.5608 4.46048 32.4371 2.32 40.5581 2.32V0.319998C32.0657 0.319998 24.7553 2.56618 18.6801 7.09847L19.876 8.70152ZM40.5581 2.32C47.527 2.32 53.3222 3.64963 57.991 6.25336L58.9651 4.50663C53.9272 1.69703 47.7758 0.319998 40.5581 0.319998V2.32ZM57.991 6.25336C62.7046 8.88213 66.3035 12.3095 68.8189 16.5318L70.5371 15.5082C67.8259 10.9572 63.9581 7.29119 58.9651 4.50663L57.991 6.25336ZM68.8189 16.5318C71.3585 20.7947 72.8501 25.3191 73.3025 30.1139L75.2936 29.9261C74.8126 24.8276 73.2242 20.0187 70.5371 15.5082L68.8189 16.5318ZM74.2981 29.02H54.698V31.02H74.2981V29.02ZM55.6831 29.8476C54.9954 25.9181 53.3036 22.8308 50.552 20.6906L49.3241 22.2693C51.6125 24.0492 53.094 26.6552 53.713 30.1924L55.6831 29.8476ZM50.584 20.7166C47.9375 18.4773 44.5175 17.4 40.418 17.4V19.4C44.1586 19.4 47.0853 20.3761 49.2921 22.2434L50.584 20.7166ZM40.418 17.4C36.4567 17.4 33.002 18.6453 30.1051 21.1426L31.411 22.6574C33.9275 20.488 36.9127 19.4 40.418 19.4V17.4ZM30.1205 21.1296C27.2281 23.5233 25.0421 27.0656 23.5094 31.6638L25.4067 32.2962C26.8607 27.9344 28.8747 24.7567 31.3956 22.6704L30.1205 21.1296ZM23.5094 31.6638C21.9753 36.2659 21.1269 41.9234 20.9384 48.6118L22.9377 48.6682C23.1226 42.1032 23.9541 36.6541 25.4067 32.2962L23.5094 31.6638ZM20.938 48.64C20.938 48.6402 20.938 48.6404 20.938 48.6405C20.938 48.6407 20.938 48.6409 20.938 48.6411C20.938 48.6413 20.938 48.6415 20.938 48.6416C20.938 48.6418 20.938 48.642 20.938 48.6422C20.938 48.6424 20.938 48.6426 20.938 48.6427C20.938 48.6429 20.938 48.6431 20.938 48.6433C20.938 48.6435 20.938 48.6437 20.938 48.6439C20.938 48.644 20.938 48.6442 20.938 48.6444C20.938 48.6446 20.938 48.6448 20.938 48.645C20.938 48.6451 20.938 48.6453 20.938 48.6455C20.938 48.6457 20.938 48.6459 20.938 48.6461C20.938 48.6463 20.938 48.6465 20.938 48.6466C20.938 48.6468 20.938 48.647 20.938 48.6472C20.938 48.6474 20.938 48.6476 20.938 48.6478C20.938 48.6479 20.938 48.6481 20.938 48.6483C20.938 48.6485 20.938 48.6487 20.938 48.6489C20.938 48.6491 20.938 48.6493 20.938 48.6494C20.938 48.6496 20.938 48.6498 20.938 48.65C20.938 48.6502 20.938 48.6504 20.938 48.6506C20.938 48.6508 20.938 48.651 20.938 48.6511C20.938 48.6513 20.938 48.6515 20.938 48.6517C20.938 48.6519 20.938 48.6521 20.938 48.6523C20.938 48.6525 20.938 48.6527 20.938 48.6529C20.938 48.653 20.938 48.6532 20.938 48.6534C20.938 48.6536 20.938 48.6538 20.938 48.654C20.938 48.6542 20.938 48.6544 20.938 48.6546C20.938 48.6548 20.938 48.655 20.938 48.6552C20.938 48.6553 20.938 48.6555 20.938 48.6557C20.938 48.6559 20.938 48.6561 20.938 48.6563C20.938 48.6565 20.938 48.6567 20.938 48.6569C20.938 48.6571 20.938 48.6573 20.938 48.6575C20.938 48.6577 20.938 48.6579 20.938 48.658C20.938 48.6582 20.938 48.6584 20.938 48.6586C20.938 48.6588 20.938 48.659 20.938 48.6592C20.938 48.6594 20.938 48.6596 20.938 48.6598C20.938 48.66 20.938 48.6602 20.938 48.6604C20.938 48.6606 20.938 48.6608 20.938 48.661C20.938 48.6612 20.938 48.6614 20.938 48.6616C20.938 48.6617 20.938 48.6619 20.938 48.6621C20.938 48.6623 20.938 48.6625 20.938 48.6627C20.938 48.6629 20.938 48.6631 20.938 48.6633C20.938 48.6635 20.938 48.6637 20.938 48.6639C20.938 48.6641 20.938 48.6643 20.938 48.6645C20.938 48.6647 20.938 48.6649 20.938 48.6651C20.938 48.6653 20.938 48.6655 20.938 48.6657C20.938 48.6659 20.938 48.6661 20.938 48.6663C20.938 48.6665 20.938 48.6667 20.938 48.6669C20.938 48.6671 20.938 48.6673 20.938 48.6675C20.938 48.6677 20.938 48.6679 20.938 48.6681C20.938 48.6683 20.938 48.6685 20.938 48.6687C20.938 48.6689 20.938 48.6691 20.938 48.6693C20.938 48.6695 20.938 48.6697 20.938 48.6699C20.938 48.6701 20.938 48.6703 20.938 48.6705C20.938 48.6707 20.938 48.6709 20.938 48.6711C20.938 48.6713 20.938 48.6715 20.938 48.6717C20.938 48.6719 20.938 48.6721 20.938 48.6723C20.938 48.6725 20.938 48.6727 20.938 48.6729C20.938 48.6731 20.938 48.6733 20.938 48.6735C20.938 48.6737 20.938 48.6739 20.938 48.6741C20.938 48.6743 20.938 48.6745 20.938 48.6747C20.938 48.6749 20.938 48.6751 20.938 48.6753C20.938 48.6755 20.938 48.6758 20.938 48.676C20.938 48.6762 20.938 48.6764 20.938 48.6766C20.938 48.6768 20.938 48.677 20.938 48.6772C20.938 48.6774 20.938 48.6776 20.938 48.6778C20.938 48.678 20.938 48.6782 20.938 48.6784C20.938 48.6786 20.938 48.6788 20.938 48.679C20.938 48.6792 20.938 48.6794 20.938 48.6797C20.938 48.6799 20.938 48.6801 20.938 48.6803C20.938 48.6805 20.938 48.6807 20.938 48.6809C20.938 48.6811 20.938 48.6813 20.938 48.6815C20.938 48.6817 20.938 48.6819 20.938 48.6821C20.938 48.6824 20.938 48.6826 20.938 48.6828C20.938 48.683 20.938 48.6832 20.938 48.6834C20.938 48.6836 20.938 48.6838 20.938 48.684C20.938 48.6842 20.938 48.6844 20.938 48.6846C20.938 48.6849 20.938 48.6851 20.938 48.6853C20.938 48.6855 20.938 48.6857 20.938 48.6859C20.938 48.6861 20.938 48.6863 20.938 48.6865C20.938 48.6867 20.938 48.687 20.938 48.6872C20.938 48.6874 20.938 48.6876 20.938 48.6878C20.938 48.688 20.938 48.6882 20.938 48.6884C20.938 48.6886 20.938 48.6889 20.938 48.6891C20.938 48.6893 20.938 48.6895 20.938 48.6897C20.938 48.6899 20.938 48.6901 20.938 48.6903C20.938 48.6906 20.938 48.6908 20.938 48.691C20.938 48.6912 20.938 48.6914 20.938 48.6916C20.938 48.6918 20.938 48.692 20.938 48.6923C20.938 48.6925 20.938 48.6927 20.938 48.6929C20.938 48.6931 20.938 48.6933 20.938 48.6935C20.938 48.6938 20.938 48.694 20.938 48.6942C20.938 48.6944 20.938 48.6946 20.938 48.6948C20.938 48.695 20.938 48.6953 20.938 48.6955C20.938 48.6957 20.938 48.6959 20.938 48.6961C20.938 48.6963 20.938 48.6966 20.938 48.6968C20.938 48.697 20.938 48.6972 20.938 48.6974C20.938 48.6976 20.938 48.6979 20.938 48.6981C20.938 48.6983 20.938 48.6985 20.938 48.6987C20.938 48.6989 20.938 48.6992 20.938 48.6994C20.938 48.6996 20.938 48.6998 20.938 48.7C20.938 48.7002 20.938 48.7005 20.938 48.7007C20.938 48.7009 20.938 48.7011 20.938 48.7013C20.938 48.7016 20.938 48.7018 20.938 48.702C20.938 48.7022 20.938 48.7024 20.938 48.7026C20.938 48.7029 20.938 48.7031 20.938 48.7033C20.938 48.7035 20.938 48.7037 20.938 48.704C20.938 48.7042 20.938 48.7044 20.938 48.7046C20.938 48.7048 20.938 48.7051 20.938 48.7053C20.938 48.7055 20.938 48.7057 20.938 48.706C20.938 48.7062 20.938 48.7064 20.938 48.7066C20.938 48.7068 20.938 48.7071 20.938 48.7073C20.938 48.7075 20.938 48.7077 20.938 48.7079C20.938 48.7082 20.938 48.7084 20.938 48.7086C20.938 48.7088 20.938 48.7091 20.938 48.7093C20.938 48.7095 20.938 48.7097 20.938 48.71C20.938 48.7102 20.938 48.7104 20.938 48.7106C20.938 48.7108 20.938 48.7111 20.938 48.7113C20.938 48.7115 20.938 48.7117 20.938 48.712C20.938 48.7122 20.938 48.7124 20.938 48.7126C20.938 48.7129 20.938 48.7131 20.938 48.7133C20.938 48.7135 20.938 48.7138 20.938 48.714C20.938 48.7142 20.938 48.7144 20.938 48.7147C20.938 48.7149 20.938 48.7151 20.938 48.7153C20.938 48.7156 20.938 48.7158 20.938 48.716C20.938 48.7162 20.938 48.7165 20.938 48.7167C20.938 48.7169 20.938 48.7172 20.938 48.7174C20.938 48.7176 20.938 48.7178 20.938 48.7181C20.938 48.7183 20.938 48.7185 20.938 48.7187C20.938 48.719 20.938 48.7192 20.938 48.7194C20.938 48.7197 20.938 48.7199 20.938 48.7201C20.938 48.7203 20.938 48.7206 20.938 48.7208C20.938 48.721 20.938 48.7213 20.938 48.7215C20.938 48.7217 20.938 48.7219 20.938 48.7222C20.938 48.7224 20.938 48.7226 20.938 48.7229C20.938 48.7231 20.938 48.7233 20.938 48.7236C20.938 48.7238 20.938 48.724 20.938 48.7243C20.938 48.7245 20.938 48.7247 20.938 48.7249C20.938 48.7252 20.938 48.7254 20.938 48.7256C20.938 48.7259 20.938 48.7261 20.938 48.7263C20.938 48.7266 20.938 48.7268 20.938 48.727C20.938 48.7273 20.938 48.7275 20.938 48.7277C20.938 48.728 20.938 48.7282 20.938 48.7284C20.938 48.7287 20.938 48.7289 20.938 48.7291C20.938 48.7294 20.938 48.7296 20.938 48.7298C20.938 48.7301 20.938 48.7303 20.938 48.7305C20.938 48.7308 20.938 48.731 20.938 48.7312C20.938 48.7315 20.938 48.7317 20.938 48.7319C20.938 48.7322 20.938 48.7324 20.938 48.7326C20.938 48.7329 20.938 48.7331 20.938 48.7333C20.938 48.7336 20.938 48.7338 20.938 48.734C20.938 48.7343 20.938 48.7345 20.938 48.7348C20.938 48.735 20.938 48.7352 20.938 48.7355C20.938 48.7357 20.938 48.7359 20.938 48.7362C20.938 48.7364 20.938 48.7366 20.938 48.7369C20.938 48.7371 20.938 48.7374 20.938 48.7376C20.938 48.7378 20.938 48.7381 20.938 48.7383C20.938 48.7385 20.938 48.7388 20.938 48.739C20.938 48.7393 20.938 48.7395 20.938 48.7397C20.938 48.74 20.938 48.7402 20.938 48.7405C20.938 48.7407 20.938 48.7409 20.938 48.7412C20.938 48.7414 20.938 48.7416 20.938 48.7419C20.938 48.7421 20.938 48.7424 20.938 48.7426C20.938 48.7428 20.938 48.7431 20.938 48.7433C20.938 48.7436 20.938 48.7438 20.938 48.744C20.938 48.7443 20.938 48.7445 20.938 48.7448C20.938 48.745 20.938 48.7453 20.938 48.7455C20.938 48.7457 20.938 48.746 20.938 48.7462C20.938 48.7465 20.938 48.7467 20.938 48.7469C20.938 48.7472 20.938 48.7474 20.938 48.7477C20.938 48.7479 20.938 48.7482 20.938 48.7484C20.938 48.7486 20.938 48.7489 20.938 48.7491C20.938 48.7494 20.938 48.7496 20.938 48.7499C20.938 48.7501 20.938 48.7503 20.938 48.7506C20.938 48.7508 20.938 48.7511 20.938 48.7513C20.938 48.7516 20.938 48.7518 20.938 48.7521C20.938 48.7523 20.938 48.7525 20.938 48.7528C20.938 48.753 20.938 48.7533 20.938 48.7535C20.938 48.7538 20.938 48.754 20.938 48.7543C20.938 48.7545 20.938 48.7548 20.938 48.755C20.938 48.7552 20.938 48.7555 20.938 48.7557C20.938 48.756 20.938 48.7562 20.938 48.7565C20.938 48.7567 20.938 48.757 20.938 48.7572C20.938 48.7575 20.938 48.7577 20.938 48.758C20.938 48.7582 20.938 48.7585 20.938 48.7587C20.938 48.759 20.938 48.7592 20.938 48.7594C20.938 48.7597 20.938 48.7599 20.938 48.7602C20.938 48.7604 20.938 48.7607 20.938 48.7609C20.938 48.7612 20.938 48.7614 20.938 48.7617C20.938 48.7619 20.938 48.7622 20.938 48.7624C20.938 48.7627 20.938 48.7629 20.938 48.7632C20.938 48.7634 20.938 48.7637 20.938 48.7639C20.938 48.7642 20.938 48.7644 20.938 48.7647C20.938 48.7649 20.938 48.7652 20.938 48.7654C20.938 48.7657 20.938 48.7659 20.938 48.7662C20.938 48.7664 20.938 48.7667 20.938 48.7669C20.938 48.7672 20.938 48.7674 20.938 48.7677C20.938 48.768 20.938 48.7682 20.938 48.7685C20.938 48.7687 20.938 48.769 20.938 48.7692C20.938 48.7695 20.938 48.7697 20.938 48.77C20.938 48.7702 20.938 48.7705 20.938 48.7707C20.938 48.771 20.938 48.7712 20.938 48.7715C20.938 48.7717 20.938 48.772 20.938 48.7723C20.938 48.7725 20.938 48.7728 20.938 48.773C20.938 48.7733 20.938 48.7735 20.938 48.7738C20.938 48.774 20.938 48.7743 20.938 48.7745C20.938 48.7748 20.938 48.7751 20.938 48.7753C20.938 48.7756 20.938 48.7758 20.938 48.7761C20.938 48.7763 20.938 48.7766 20.938 48.7769C20.938 48.7771 20.938 48.7774 20.938 48.7776C20.938 48.7779 20.938 48.7781 20.938 48.7784C20.938 48.7787 20.938 48.7789 20.938 48.7792C20.938 48.7794 20.938 48.7797 20.938 48.7799C20.938 48.7802 20.938 48.7805 20.938 48.7807C20.938 48.781 20.938 48.7812 20.938 48.7815C20.938 48.7817 20.938 48.782 20.938 48.7823C20.938 48.7825 20.938 48.7828 20.938 48.783C20.938 48.7833 20.938 48.7836 20.938 48.7838C20.938 48.7841 20.938 48.7843 20.938 48.7846C20.938 48.7849 20.938 48.7851 20.938 48.7854C20.938 48.7856 20.938 48.7859 20.938 48.7862C20.938 48.7864 20.938 48.7867 20.938 48.7869C20.938 48.7872 20.938 48.7875 20.938 48.7877C20.938 48.788 20.938 48.7882 20.938 48.7885C20.938 48.7888 20.938 48.789 20.938 48.7893C20.938 48.7896 20.938 48.7898 20.938 48.7901C20.938 48.7903 20.938 48.7906 20.938 48.7909C20.938 48.7911 20.938 48.7914 20.938 48.7917C20.938 48.7919 20.938 48.7922 20.938 48.7924C20.938 48.7927 20.938 48.793 20.938 48.7932C20.938 48.7935 20.938 48.7938 20.938 48.794C20.938 48.7943 20.938 48.7946 20.938 48.7948C20.938 48.7951 20.938 48.7954 20.938 48.7956C20.938 48.7959 20.938 48.7961 20.938 48.7964C20.938 48.7967 20.938 48.7969 20.938 48.7972C20.938 48.7975 20.938 48.7977 20.938 48.798C20.938 48.7983 20.938 48.7985 20.938 48.7988C20.938 48.7991 20.938 48.7993 20.938 48.7996C20.938 48.7999 20.938 48.8001 20.938 48.8004C20.938 48.8007 20.938 48.8009 20.938 48.8012C20.938 48.8015 20.938 48.8017 20.938 48.802C20.938 48.8023 20.938 48.8025 20.938 48.8028C20.938 48.8031 20.938 48.8033 20.938 48.8036C20.938 48.8039 20.938 48.8042 20.938 48.8044C20.938 48.8047 20.938 48.805 20.938 48.8052C20.938 48.8055 20.938 48.8058 20.938 48.806C20.938 48.8063 20.938 48.8066 20.938 48.8068C20.938 48.8071 20.938 48.8074 20.938 48.8077C20.938 48.8079 20.938 48.8082 20.938 48.8085C20.938 48.8087 20.938 48.809 20.938 48.8093C20.938 48.8096 20.938 48.8098 20.938 48.8101C20.938 48.8104 20.938 48.8106 20.938 48.8109C20.938 48.8112 20.938 48.8115 20.938 48.8117C20.938 48.812 20.938 48.8123 20.938 48.8125C20.938 48.8128 20.938 48.8131 20.938 48.8134C20.938 48.8136 20.938 48.8139 20.938 48.8142C20.938 48.8145 20.938 48.8147 20.938 48.815C20.938 48.8153 20.938 48.8155 20.938 48.8158C20.938 48.8161 20.938 48.8164 20.938 48.8166C20.938 48.8169 20.938 48.8172 20.938 48.8175C20.938 48.8177 20.938 48.818 20.938 48.8183C20.938 48.8186 20.938 48.8188 20.938 48.8191C20.938 48.8194 20.938 48.8197 20.938 48.8199C20.938 48.8202 20.938 48.8205 20.938 48.8208C20.938 48.821 20.938 48.8213 20.938 48.8216C20.938 48.8219 20.938 48.8221 20.938 48.8224C20.938 48.8227 20.938 48.823 20.938 48.8233C20.938 48.8235 20.938 48.8238 20.938 48.8241C20.938 48.8244 20.938 48.8246 20.938 48.8249C20.938 48.8252 20.938 48.8255 20.938 48.8258C20.938 48.826 20.938 48.8263 20.938 48.8266C20.938 48.8269 20.938 48.8271 20.938 48.8274C20.938 48.8277 20.938 48.828 20.938 48.8283C20.938 48.8285 20.938 48.8288 20.938 48.8291C20.938 48.8294 20.938 48.8297 20.938 48.8299C20.938 48.8302 20.938 48.8305 20.938 48.8308C20.938 48.8311 20.938 48.8313 20.938 48.8316C20.938 48.8319 20.938 48.8322 20.938 48.8325C20.938 48.8327 20.938 48.833 20.938 48.8333C20.938 48.8336 20.938 48.8339 20.938 48.8341C20.938 48.8344 20.938 48.8347 20.938 48.835C20.938 48.8353 20.938 48.8356 20.938 48.8358C20.938 48.8361 20.938 48.8364 20.938 48.8367C20.938 48.837 20.938 48.8373 20.938 48.8375C20.938 48.8378 20.938 48.8381 20.938 48.8384C20.938 48.8387 20.938 48.839 20.938 48.8392C20.938 48.8395 20.938 48.8398 20.938 48.8401C20.938 48.8404 20.938 48.8407 20.938 48.8409C20.938 48.8412 20.938 48.8415 20.938 48.8418C20.938 48.8421 20.938 48.8424 20.938 48.8426C20.938 48.8429 20.938 48.8432 20.938 48.8435C20.938 48.8438 20.938 48.8441 20.938 48.8444C20.938 48.8446 20.938 48.8449 20.938 48.8452C20.938 48.8455 20.938 48.8458 20.938 48.8461C20.938 48.8464 20.938 48.8467 20.938 48.8469C20.938 48.8472 20.938 48.8475 20.938 48.8478C20.938 48.8481 20.938 48.8484 20.938 48.8487C20.938 48.849 20.938 48.8492 20.938 48.8495C20.938 48.8498 20.938 48.8501 20.938 48.8504C20.938 48.8507 20.938 48.851 20.938 48.8513C20.938 48.8515 20.938 48.8518 20.938 48.8521C20.938 48.8524 20.938 48.8527 20.938 48.853C20.938 48.8533 20.938 48.8536 20.938 48.8539C20.938 48.8542 20.938 48.8544 20.938 48.8547C20.938 48.855 20.938 48.8553 20.938 48.8556C20.938 48.8559 20.938 48.8562 20.938 48.8565C20.938 48.8568 20.938 48.8571 20.938 48.8573C20.938 48.8576 20.938 48.8579 20.938 48.8582C20.938 48.8585 20.938 48.8588 20.938 48.8591C20.938 48.8594 20.938 48.8597 20.938 48.86C20.938 48.8603 20.938 48.8606 20.938 48.8609C20.938 48.8611 20.938 48.8614 20.938 48.8617C20.938 48.862 20.938 48.8623 20.938 48.8626C20.938 48.8629 20.938 48.8632 20.938 48.8635C20.938 48.8638 20.938 48.8641 20.938 48.8644C20.938 48.8647 20.938 48.865 20.938 48.8653C20.938 48.8655 20.938 48.8658 20.938 48.8661C20.938 48.8664 20.938 48.8667 20.938 48.867C20.938 48.8673 20.938 48.8676 20.938 48.8679C20.938 48.8682 20.938 48.8685 20.938 48.8688C20.938 48.8691 20.938 48.8694 20.938 48.8697C20.938 48.87 20.938 48.8703 20.938 48.8706C20.938 48.8709 20.938 48.8712 20.938 48.8715C20.938 48.8718 20.938 48.8721 20.938 48.8724C20.938 48.8727 20.938 48.8729 20.938 48.8732C20.938 48.8735 20.938 48.8738 20.938 48.8741C20.938 48.8744 20.938 48.8747 20.938 48.875C20.938 48.8753 20.938 48.8756 20.938 48.8759C20.938 48.8762 20.938 48.8765 20.938 48.8768C20.938 48.8771 20.938 48.8774 20.938 48.8777C20.938 48.878 20.938 48.8783 20.938 48.8786C20.938 48.8789 20.938 48.8792 20.938 48.8795C20.938 48.8798 20.938 48.8801 20.938 48.8804C20.938 48.8807 20.938 48.881 20.938 48.8813C20.938 48.8816 20.938 48.8819 20.938 48.8822C20.938 48.8825 20.938 48.8828 20.938 48.8831C20.938 48.8834 20.938 48.8837 20.938 48.884C20.938 48.8843 20.938 48.8846 20.938 48.8849C20.938 48.8852 20.938 48.8856 20.938 48.8859C20.938 48.8862 20.938 48.8865 20.938 48.8868C20.938 48.8871 20.938 48.8874 20.938 48.8877C20.938 48.888 20.938 48.8883 20.938 48.8886C20.938 48.8889 20.938 48.8892 20.938 48.8895C20.938 48.8898 20.938 48.8901 20.938 48.8904C20.938 48.8907 20.938 48.891 20.938 48.8913C20.938 48.8916 20.938 48.8919 20.938 48.8922C20.938 48.8925 20.938 48.8928 20.938 48.8932C20.938 48.8935 20.938 48.8938 20.938 48.8941C20.938 48.8944 20.938 48.8947 20.938 48.895C20.938 48.8953 20.938 48.8956 20.938 48.8959C20.938 48.8962 20.938 48.8965 20.938 48.8968C20.938 48.8971 20.938 48.8974 20.938 48.8977C20.938 48.8981 20.938 48.8984 20.938 48.8987C20.938 48.899 20.938 48.8993 20.938 48.8996C20.938 48.8999 20.938 48.9002 20.938 48.9005C20.938 48.9008 20.938 48.9011 20.938 48.9014C20.938 48.9018 20.938 48.9021 20.938 48.9024C20.938 48.9027 20.938 48.903 20.938 48.9033C20.938 48.9036 20.938 48.9039 20.938 48.9042C20.938 48.9045 20.938 48.9048 20.938 48.9052C20.938 48.9055 20.938 48.9058 20.938 48.9061C20.938 48.9064 20.938 48.9067 20.938 48.907C20.938 48.9073 20.938 48.9076 20.938 48.908C20.938 48.9083 20.938 48.9086 20.938 48.9089C20.938 48.9092 20.938 48.9095 20.938 48.9098C20.938 48.9101 20.938 48.9104 20.938 48.9108C20.938 48.9111 20.938 48.9114 20.938 48.9117C20.938 48.912 20.938 48.9123 20.938 48.9126C20.938 48.9129 20.938 48.9133 20.938 48.9136C20.938 48.9139 20.938 48.9142 20.938 48.9145C20.938 48.9148 20.938 48.9151 20.938 48.9155C20.938 48.9158 20.938 48.9161 20.938 48.9164C20.938 48.9167 20.938 48.917 20.938 48.9173C20.938 48.9177 20.938 48.918 20.938 48.9183C20.938 48.9186 20.938 48.9189 20.938 48.9192C20.938 48.9195 20.938 48.9199 20.938 48.9202C20.938 48.9205 20.938 48.9208 20.938 48.9211C20.938 48.9214 20.938 48.9218 20.938 48.9221C20.938 48.9224 20.938 48.9227 20.938 48.923C20.938 48.9233 20.938 48.9237 20.938 48.924C20.938 48.9243 20.938 48.9246 20.938 48.9249C20.938 48.9252 20.938 48.9256 20.938 48.9259C20.938 48.9262 20.938 48.9265 20.938 48.9268C20.938 48.9272 20.938 48.9275 20.938 48.9278C20.938 48.9281 20.938 48.9284 20.938 48.9287C20.938 48.9291 20.938 48.9294 20.938 48.9297C20.938 48.93 20.938 48.9303 20.938 48.9307C20.938 48.931 20.938 48.9313 20.938 48.9316C20.938 48.9319 20.938 48.9323 20.938 48.9326C20.938 48.9329 20.938 48.9332 20.938 48.9335C20.938 48.9339 20.938 48.9342 20.938 48.9345C20.938 48.9348 20.938 48.9352 20.938 48.9355C20.938 48.9358 20.938 48.9361 20.938 48.9364C20.938 48.9368 20.938 48.9371 20.938 48.9374C20.938 48.9377 20.938 48.938 20.938 48.9384C20.938 48.9387 20.938 48.939 20.938 48.9393C20.938 48.9397 20.938 48.94 20.938 48.9403C20.938 48.9406 20.938 48.941 20.938 48.9413C20.938 48.9416 20.938 48.9419 20.938 48.9422C20.938 48.9426 20.938 48.9429 20.938 48.9432C20.938 48.9435 20.938 48.9439 20.938 48.9442C20.938 48.9445 20.938 48.9448 20.938 48.9452C20.938 48.9455 20.938 48.9458 20.938 48.9461C20.938 48.9465 20.938 48.9468 20.938 48.9471C20.938 48.9474 20.938 48.9478 20.938 48.9481C20.938 48.9484 20.938 48.9488 20.938 48.9491C20.938 48.9494 20.938 48.9497 20.938 48.9501C20.938 48.9504 20.938 48.9507 20.938 48.951C20.938 48.9514 20.938 48.9517 20.938 48.952C20.938 48.9524 20.938 48.9527 20.938 48.953C20.938 48.9533 20.938 48.9537 20.938 48.954C20.938 48.9543 20.938 48.9546 20.938 48.955C20.938 48.9553 20.938 48.9556 20.938 48.956C20.938 48.9563 20.938 48.9566 20.938 48.9569C20.938 48.9573 20.938 48.9576 20.938 48.9579C20.938 48.9583 20.938 48.9586 20.938 48.9589C20.938 48.9593 20.938 48.9596 20.938 48.9599C20.938 48.9602 20.938 48.9606 20.938 48.9609C20.938 48.9612 20.938 48.9616 20.938 48.9619C20.938 48.9622 20.938 48.9626 20.938 48.9629C20.938 48.9632 20.938 48.9636 20.938 48.9639C20.938 48.9642 20.938 48.9646 20.938 48.9649C20.938 48.9652 20.938 48.9656 20.938 48.9659C20.938 48.9662 20.938 48.9666 20.938 48.9669C20.938 48.9672 20.938 48.9676 20.938 48.9679C20.938 48.9682 20.938 48.9685 20.938 48.9689C20.938 48.9692 20.938 48.9696 20.938 48.9699C20.938 48.9702 20.938 48.9706 20.938 48.9709C20.938 48.9712 20.938 48.9716 20.938 48.9719C20.938 48.9722 20.938 48.9726 20.938 48.9729C20.938 48.9732 20.938 48.9736 20.938 48.9739C20.938 48.9742 20.938 48.9746 20.938 48.9749C20.938 48.9752 20.938 48.9756 20.938 48.9759C20.938 48.9763 20.938 48.9766 20.938 48.9769C20.938 48.9773 20.938 48.9776 20.938 48.9779C20.938 48.9783 20.938 48.9786 20.938 48.9789C20.938 48.9793 20.938 48.9796 20.938 48.98C20.938 48.9803 20.938 48.9806 20.938 48.981C20.938 48.9813 20.938 48.9816 20.938 48.982C20.938 48.9823 20.938 48.9827 20.938 48.983C20.938 48.9833 20.938 48.9837 20.938 48.984C20.938 48.9844 20.938 48.9847 20.938 48.985C20.938 48.9854 20.938 48.9857 20.938 48.9861C20.938 48.9864 20.938 48.9867 20.938 48.9871C20.938 48.9874 20.938 48.9878 20.938 48.9881C20.938 48.9884 20.938 48.9888 20.938 48.9891C20.938 48.9895 20.938 48.9898 20.938 48.9901C20.938 48.9905 20.938 48.9908 20.938 48.9912C20.938 48.9915 20.938 48.9918 20.938 48.9922C20.938 48.9925 20.938 48.9929 20.938 48.9932C20.938 48.9936 20.938 48.9939 20.938 48.9942C20.938 48.9946 20.938 48.9949 20.938 48.9953C20.938 48.9956 20.938 48.996 20.938 48.9963C20.938 48.9966 20.938 48.997 20.938 48.9973C20.938 48.9977 20.938 48.998 20.938 48.9984C20.938 48.9987 20.938 48.999 20.938 48.9994C20.938 48.9997 20.938 49.0001 20.938 49.0004C20.938 49.0008 20.938 49.0011 20.938 49.0015C20.938 49.0018 20.938 49.0021 20.938 49.0025C20.938 49.0028 20.938 49.0032 20.938 49.0035C20.938 49.0039 20.938 49.0042 20.938 49.0046C20.938 49.0049 20.938 49.0053 20.938 49.0056C20.938 49.006 20.938 49.0063 20.938 49.0066C20.938 49.007 20.938 49.0073 20.938 49.0077C20.938 49.008 20.938 49.0084 20.938 49.0087C20.938 49.0091 20.938 49.0094 20.938 49.0098C20.938 49.0101 20.938 49.0105 20.938 49.0108C20.938 49.0112 20.938 49.0115 20.938 49.0119C20.938 49.0122 20.938 49.0126 20.938 49.0129C20.938 49.0133 20.938 49.0136 20.938 49.014C20.938 49.0143 20.938 49.0147 20.938 49.015C20.938 49.0154 20.938 49.0157 20.938 49.0161C20.938 49.0164 20.938 49.0168 20.938 49.0171C20.938 49.0175 20.938 49.0178 20.938 49.0182C20.938 49.0185 20.938 49.0189 20.938 49.0192C20.938 49.0196 20.938 49.0199 20.938 49.0203C20.938 49.0206 20.938 49.021 20.938 49.0213C20.938 49.0217 20.938 49.022 20.938 49.0224C20.938 49.0227 20.938 49.0231 20.938 49.0234C20.938 49.0238 20.938 49.0241 20.938 49.0245C20.938 49.0248 20.938 49.0252 20.938 49.0255C20.938 49.0259 20.938 49.0263 20.938 49.0266C20.938 49.027 20.938 49.0273 20.938 49.0277C20.938 49.028 20.938 49.0284 20.938 49.0287C20.938 49.0291 20.938 49.0294 20.938 49.0298C20.938 49.0301 20.938 49.0305 20.938 49.0309C20.938 49.0312 20.938 49.0316 20.938 49.0319C20.938 49.0323 20.938 49.0326 20.938 49.033C20.938 49.0333 20.938 49.0337 20.938 49.0341C20.938 49.0344 20.938 49.0348 20.938 49.0351C20.938 49.0355 20.938 49.0358 20.938 49.0362C20.938 49.0366 20.938 49.0369 20.938 49.0373C20.938 49.0376 20.938 49.038 20.938 49.0383C20.938 49.0387 20.938 49.0391 20.938 49.0394C20.938 49.0398 20.938 49.0401 20.938 49.0405C20.938 49.0408 20.938 49.0412 20.938 49.0416C20.938 49.0419 20.938 49.0423 20.938 49.0426C20.938 49.043 20.938 49.0434 20.938 49.0437C20.938 49.0441 20.938 49.0444 20.938 49.0448C20.938 49.0451 20.938 49.0455 20.938 49.0459C20.938 49.0462 20.938 49.0466 20.938 49.0469C20.938 49.0473 20.938 49.0477 20.938 49.048C20.938 49.0484 20.938 49.0488 20.938 49.0491C20.938 49.0495 20.938 49.0498 20.938 49.0502C20.938 49.0506 20.938 49.0509 20.938 49.0513C20.938 49.0516 20.938 49.052 20.938 49.0524C20.938 49.0527 20.938 49.0531 20.938 49.0535C20.938 49.0538 20.938 49.0542 20.938 49.0545C20.938 49.0549 20.938 49.0553 20.938 49.0556C20.938 49.056 20.938 49.0564 20.938 49.0567C20.938 49.0571 20.938 49.0574 20.938 49.0578C20.938 49.0582 20.938 49.0585 20.938 49.0589C20.938 49.0593 20.938 49.0596 20.938 49.06H22.938C22.938 49.0596 22.938 49.0593 22.938 49.0589C22.938 49.0585 22.938 49.0582 22.938 49.0578C22.938 49.0574 22.938 49.0571 22.938 49.0567C22.938 49.0564 22.938 49.056 22.938 49.0556C22.938 49.0553 22.938 49.0549 22.938 49.0545C22.938 49.0542 22.938 49.0538 22.938 49.0535C22.938 49.0531 22.938 49.0527 22.938 49.0524C22.938 49.052 22.938 49.0516 22.938 49.0513C22.938 49.0509 22.938 49.0506 22.938 49.0502C22.938 49.0498 22.938 49.0495 22.938 49.0491C22.938 49.0488 22.938 49.0484 22.938 49.048C22.938 49.0477 22.938 49.0473 22.938 49.0469C22.938 49.0466 22.938 49.0462 22.938 49.0459C22.938 49.0455 22.938 49.0451 22.938 49.0448C22.938 49.0444 22.938 49.0441 22.938 49.0437C22.938 49.0434 22.938 49.043 22.938 49.0426C22.938 49.0423 22.938 49.0419 22.938 49.0416C22.938 49.0412 22.938 49.0408 22.938 49.0405C22.938 49.0401 22.938 49.0398 22.938 49.0394C22.938 49.0391 22.938 49.0387 22.938 49.0383C22.938 49.038 22.938 49.0376 22.938 49.0373C22.938 49.0369 22.938 49.0366 22.938 49.0362C22.938 49.0358 22.938 49.0355 22.938 49.0351C22.938 49.0348 22.938 49.0344 22.938 49.0341C22.938 49.0337 22.938 49.0333 22.938 49.033C22.938 49.0326 22.938 49.0323 22.938 49.0319C22.938 49.0316 22.938 49.0312 22.938 49.0309C22.938 49.0305 22.938 49.0301 22.938 49.0298C22.938 49.0294 22.938 49.0291 22.938 49.0287C22.938 49.0284 22.938 49.028 22.938 49.0277C22.938 49.0273 22.938 49.027 22.938 49.0266C22.938 49.0263 22.938 49.0259 22.938 49.0255C22.938 49.0252 22.938 49.0248 22.938 49.0245C22.938 49.0241 22.938 49.0238 22.938 49.0234C22.938 49.0231 22.938 49.0227 22.938 49.0224C22.938 49.022 22.938 49.0217 22.938 49.0213C22.938 49.021 22.938 49.0206 22.938 49.0203C22.938 49.0199 22.938 49.0196 22.938 49.0192C22.938 49.0189 22.938 49.0185 22.938 49.0182C22.938 49.0178 22.938 49.0175 22.938 49.0171C22.938 49.0168 22.938 49.0164 22.938 49.0161C22.938 49.0157 22.938 49.0154 22.938 49.015C22.938 49.0147 22.938 49.0143 22.938 49.014C22.938 49.0136 22.938 49.0133 22.938 49.0129C22.938 49.0126 22.938 49.0122 22.938 49.0119C22.938 49.0115 22.938 49.0112 22.938 49.0108C22.938 49.0105 22.938 49.0101 22.938 49.0098C22.938 49.0094 22.938 49.0091 22.938 49.0087C22.938 49.0084 22.938 49.008 22.938 49.0077C22.938 49.0073 22.938 49.007 22.938 49.0066C22.938 49.0063 22.938 49.006 22.938 49.0056C22.938 49.0053 22.938 49.0049 22.938 49.0046C22.938 49.0042 22.938 49.0039 22.938 49.0035C22.938 49.0032 22.938 49.0028 22.938 49.0025C22.938 49.0021 22.938 49.0018 22.938 49.0015C22.938 49.0011 22.938 49.0008 22.938 49.0004C22.938 49.0001 22.938 48.9997 22.938 48.9994C22.938 48.999 22.938 48.9987 22.938 48.9984C22.938 48.998 22.938 48.9977 22.938 48.9973C22.938 48.997 22.938 48.9966 22.938 48.9963C22.938 48.996 22.938 48.9956 22.938 48.9953C22.938 48.9949 22.938 48.9946 22.938 48.9942C22.938 48.9939 22.938 48.9936 22.938 48.9932C22.938 48.9929 22.938 48.9925 22.938 48.9922C22.938 48.9918 22.938 48.9915 22.938 48.9912C22.938 48.9908 22.938 48.9905 22.938 48.9901C22.938 48.9898 22.938 48.9895 22.938 48.9891C22.938 48.9888 22.938 48.9884 22.938 48.9881C22.938 48.9878 22.938 48.9874 22.938 48.9871C22.938 48.9867 22.938 48.9864 22.938 48.9861C22.938 48.9857 22.938 48.9854 22.938 48.985C22.938 48.9847 22.938 48.9844 22.938 48.984C22.938 48.9837 22.938 48.9833 22.938 48.983C22.938 48.9827 22.938 48.9823 22.938 48.982C22.938 48.9816 22.938 48.9813 22.938 48.981C22.938 48.9806 22.938 48.9803 22.938 48.98C22.938 48.9796 22.938 48.9793 22.938 48.9789C22.938 48.9786 22.938 48.9783 22.938 48.9779C22.938 48.9776 22.938 48.9773 22.938 48.9769C22.938 48.9766 22.938 48.9763 22.938 48.9759C22.938 48.9756 22.938 48.9752 22.938 48.9749C22.938 48.9746 22.938 48.9742 22.938 48.9739C22.938 48.9736 22.938 48.9732 22.938 48.9729C22.938 48.9726 22.938 48.9722 22.938 48.9719C22.938 48.9716 22.938 48.9712 22.938 48.9709C22.938 48.9706 22.938 48.9702 22.938 48.9699C22.938 48.9696 22.938 48.9692 22.938 48.9689C22.938 48.9685 22.938 48.9682 22.938 48.9679C22.938 48.9676 22.938 48.9672 22.938 48.9669C22.938 48.9666 22.938 48.9662 22.938 48.9659C22.938 48.9656 22.938 48.9652 22.938 48.9649C22.938 48.9646 22.938 48.9642 22.938 48.9639C22.938 48.9636 22.938 48.9632 22.938 48.9629C22.938 48.9626 22.938 48.9622 22.938 48.9619C22.938 48.9616 22.938 48.9612 22.938 48.9609C22.938 48.9606 22.938 48.9602 22.938 48.9599C22.938 48.9596 22.938 48.9593 22.938 48.9589C22.938 48.9586 22.938 48.9583 22.938 48.9579C22.938 48.9576 22.938 48.9573 22.938 48.9569C22.938 48.9566 22.938 48.9563 22.938 48.956C22.938 48.9556 22.938 48.9553 22.938 48.955C22.938 48.9546 22.938 48.9543 22.938 48.954C22.938 48.9537 22.938 48.9533 22.938 48.953C22.938 48.9527 22.938 48.9524 22.938 48.952C22.938 48.9517 22.938 48.9514 22.938 48.951C22.938 48.9507 22.938 48.9504 22.938 48.9501C22.938 48.9497 22.938 48.9494 22.938 48.9491C22.938 48.9488 22.938 48.9484 22.938 48.9481C22.938 48.9478 22.938 48.9474 22.938 48.9471C22.938 48.9468 22.938 48.9465 22.938 48.9461C22.938 48.9458 22.938 48.9455 22.938 48.9452C22.938 48.9448 22.938 48.9445 22.938 48.9442C22.938 48.9439 22.938 48.9435 22.938 48.9432C22.938 48.9429 22.938 48.9426 22.938 48.9422C22.938 48.9419 22.938 48.9416 22.938 48.9413C22.938 48.941 22.938 48.9406 22.938 48.9403C22.938 48.94 22.938 48.9397 22.938 48.9393C22.938 48.939 22.938 48.9387 22.938 48.9384C22.938 48.938 22.938 48.9377 22.938 48.9374C22.938 48.9371 22.938 48.9368 22.938 48.9364C22.938 48.9361 22.938 48.9358 22.938 48.9355C22.938 48.9352 22.938 48.9348 22.938 48.9345C22.938 48.9342 22.938 48.9339 22.938 48.9335C22.938 48.9332 22.938 48.9329 22.938 48.9326C22.938 48.9323 22.938 48.9319 22.938 48.9316C22.938 48.9313 22.938 48.931 22.938 48.9307C22.938 48.9303 22.938 48.93 22.938 48.9297C22.938 48.9294 22.938 48.9291 22.938 48.9287C22.938 48.9284 22.938 48.9281 22.938 48.9278C22.938 48.9275 22.938 48.9272 22.938 48.9268C22.938 48.9265 22.938 48.9262 22.938 48.9259C22.938 48.9256 22.938 48.9252 22.938 48.9249C22.938 48.9246 22.938 48.9243 22.938 48.924C22.938 48.9237 22.938 48.9233 22.938 48.923C22.938 48.9227 22.938 48.9224 22.938 48.9221C22.938 48.9218 22.938 48.9214 22.938 48.9211C22.938 48.9208 22.938 48.9205 22.938 48.9202C22.938 48.9199 22.938 48.9195 22.938 48.9192C22.938 48.9189 22.938 48.9186 22.938 48.9183C22.938 48.918 22.938 48.9177 22.938 48.9173C22.938 48.917 22.938 48.9167 22.938 48.9164C22.938 48.9161 22.938 48.9158 22.938 48.9155C22.938 48.9151 22.938 48.9148 22.938 48.9145C22.938 48.9142 22.938 48.9139 22.938 48.9136C22.938 48.9133 22.938 48.9129 22.938 48.9126C22.938 48.9123 22.938 48.912 22.938 48.9117C22.938 48.9114 22.938 48.9111 22.938 48.9108C22.938 48.9104 22.938 48.9101 22.938 48.9098C22.938 48.9095 22.938 48.9092 22.938 48.9089C22.938 48.9086 22.938 48.9083 22.938 48.908C22.938 48.9076 22.938 48.9073 22.938 48.907C22.938 48.9067 22.938 48.9064 22.938 48.9061C22.938 48.9058 22.938 48.9055 22.938 48.9052C22.938 48.9048 22.938 48.9045 22.938 48.9042C22.938 48.9039 22.938 48.9036 22.938 48.9033C22.938 48.903 22.938 48.9027 22.938 48.9024C22.938 48.9021 22.938 48.9018 22.938 48.9014C22.938 48.9011 22.938 48.9008 22.938 48.9005C22.938 48.9002 22.938 48.8999 22.938 48.8996C22.938 48.8993 22.938 48.899 22.938 48.8987C22.938 48.8984 22.938 48.8981 22.938 48.8977C22.938 48.8974 22.938 48.8971 22.938 48.8968C22.938 48.8965 22.938 48.8962 22.938 48.8959C22.938 48.8956 22.938 48.8953 22.938 48.895C22.938 48.8947 22.938 48.8944 22.938 48.8941C22.938 48.8938 22.938 48.8935 22.938 48.8932C22.938 48.8928 22.938 48.8925 22.938 48.8922C22.938 48.8919 22.938 48.8916 22.938 48.8913C22.938 48.891 22.938 48.8907 22.938 48.8904C22.938 48.8901 22.938 48.8898 22.938 48.8895C22.938 48.8892 22.938 48.8889 22.938 48.8886C22.938 48.8883 22.938 48.888 22.938 48.8877C22.938 48.8874 22.938 48.8871 22.938 48.8868C22.938 48.8865 22.938 48.8862 22.938 48.8859C22.938 48.8856 22.938 48.8852 22.938 48.8849C22.938 48.8846 22.938 48.8843 22.938 48.884C22.938 48.8837 22.938 48.8834 22.938 48.8831C22.938 48.8828 22.938 48.8825 22.938 48.8822C22.938 48.8819 22.938 48.8816 22.938 48.8813C22.938 48.881 22.938 48.8807 22.938 48.8804C22.938 48.8801 22.938 48.8798 22.938 48.8795C22.938 48.8792 22.938 48.8789 22.938 48.8786C22.938 48.8783 22.938 48.878 22.938 48.8777C22.938 48.8774 22.938 48.8771 22.938 48.8768C22.938 48.8765 22.938 48.8762 22.938 48.8759C22.938 48.8756 22.938 48.8753 22.938 48.875C22.938 48.8747 22.938 48.8744 22.938 48.8741C22.938 48.8738 22.938 48.8735 22.938 48.8732C22.938 48.8729 22.938 48.8727 22.938 48.8724C22.938 48.8721 22.938 48.8718 22.938 48.8715C22.938 48.8712 22.938 48.8709 22.938 48.8706C22.938 48.8703 22.938 48.87 22.938 48.8697C22.938 48.8694 22.938 48.8691 22.938 48.8688C22.938 48.8685 22.938 48.8682 22.938 48.8679C22.938 48.8676 22.938 48.8673 22.938 48.867C22.938 48.8667 22.938 48.8664 22.938 48.8661C22.938 48.8658 22.938 48.8655 22.938 48.8653C22.938 48.865 22.938 48.8647 22.938 48.8644C22.938 48.8641 22.938 48.8638 22.938 48.8635C22.938 48.8632 22.938 48.8629 22.938 48.8626C22.938 48.8623 22.938 48.862 22.938 48.8617C22.938 48.8614 22.938 48.8611 22.938 48.8609C22.938 48.8606 22.938 48.8603 22.938 48.86C22.938 48.8597 22.938 48.8594 22.938 48.8591C22.938 48.8588 22.938 48.8585 22.938 48.8582C22.938 48.8579 22.938 48.8576 22.938 48.8573C22.938 48.8571 22.938 48.8568 22.938 48.8565C22.938 48.8562 22.938 48.8559 22.938 48.8556C22.938 48.8553 22.938 48.855 22.938 48.8547C22.938 48.8544 22.938 48.8542 22.938 48.8539C22.938 48.8536 22.938 48.8533 22.938 48.853C22.938 48.8527 22.938 48.8524 22.938 48.8521C22.938 48.8518 22.938 48.8515 22.938 48.8513C22.938 48.851 22.938 48.8507 22.938 48.8504C22.938 48.8501 22.938 48.8498 22.938 48.8495C22.938 48.8492 22.938 48.849 22.938 48.8487C22.938 48.8484 22.938 48.8481 22.938 48.8478C22.938 48.8475 22.938 48.8472 22.938 48.8469C22.938 48.8467 22.938 48.8464 22.938 48.8461C22.938 48.8458 22.938 48.8455 22.938 48.8452C22.938 48.8449 22.938 48.8446 22.938 48.8444C22.938 48.8441 22.938 48.8438 22.938 48.8435C22.938 48.8432 22.938 48.8429 22.938 48.8426C22.938 48.8424 22.938 48.8421 22.938 48.8418C22.938 48.8415 22.938 48.8412 22.938 48.8409C22.938 48.8407 22.938 48.8404 22.938 48.8401C22.938 48.8398 22.938 48.8395 22.938 48.8392C22.938 48.839 22.938 48.8387 22.938 48.8384C22.938 48.8381 22.938 48.8378 22.938 48.8375C22.938 48.8373 22.938 48.837 22.938 48.8367C22.938 48.8364 22.938 48.8361 22.938 48.8358C22.938 48.8356 22.938 48.8353 22.938 48.835C22.938 48.8347 22.938 48.8344 22.938 48.8341C22.938 48.8339 22.938 48.8336 22.938 48.8333C22.938 48.833 22.938 48.8327 22.938 48.8325C22.938 48.8322 22.938 48.8319 22.938 48.8316C22.938 48.8313 22.938 48.8311 22.938 48.8308C22.938 48.8305 22.938 48.8302 22.938 48.8299C22.938 48.8297 22.938 48.8294 22.938 48.8291C22.938 48.8288 22.938 48.8285 22.938 48.8283C22.938 48.828 22.938 48.8277 22.938 48.8274C22.938 48.8271 22.938 48.8269 22.938 48.8266C22.938 48.8263 22.938 48.826 22.938 48.8258C22.938 48.8255 22.938 48.8252 22.938 48.8249C22.938 48.8246 22.938 48.8244 22.938 48.8241C22.938 48.8238 22.938 48.8235 22.938 48.8233C22.938 48.823 22.938 48.8227 22.938 48.8224C22.938 48.8221 22.938 48.8219 22.938 48.8216C22.938 48.8213 22.938 48.821 22.938 48.8208C22.938 48.8205 22.938 48.8202 22.938 48.8199C22.938 48.8197 22.938 48.8194 22.938 48.8191C22.938 48.8188 22.938 48.8186 22.938 48.8183C22.938 48.818 22.938 48.8177 22.938 48.8175C22.938 48.8172 22.938 48.8169 22.938 48.8166C22.938 48.8164 22.938 48.8161 22.938 48.8158C22.938 48.8155 22.938 48.8153 22.938 48.815C22.938 48.8147 22.938 48.8145 22.938 48.8142C22.938 48.8139 22.938 48.8136 22.938 48.8134C22.938 48.8131 22.938 48.8128 22.938 48.8125C22.938 48.8123 22.938 48.812 22.938 48.8117C22.938 48.8115 22.938 48.8112 22.938 48.8109C22.938 48.8106 22.938 48.8104 22.938 48.8101C22.938 48.8098 22.938 48.8096 22.938 48.8093C22.938 48.809 22.938 48.8087 22.938 48.8085C22.938 48.8082 22.938 48.8079 22.938 48.8077C22.938 48.8074 22.938 48.8071 22.938 48.8068C22.938 48.8066 22.938 48.8063 22.938 48.806C22.938 48.8058 22.938 48.8055 22.938 48.8052C22.938 48.805 22.938 48.8047 22.938 48.8044C22.938 48.8042 22.938 48.8039 22.938 48.8036C22.938 48.8033 22.938 48.8031 22.938 48.8028C22.938 48.8025 22.938 48.8023 22.938 48.802C22.938 48.8017 22.938 48.8015 22.938 48.8012C22.938 48.8009 22.938 48.8007 22.938 48.8004C22.938 48.8001 22.938 48.7999 22.938 48.7996C22.938 48.7993 22.938 48.7991 22.938 48.7988C22.938 48.7985 22.938 48.7983 22.938 48.798C22.938 48.7977 22.938 48.7975 22.938 48.7972C22.938 48.7969 22.938 48.7967 22.938 48.7964C22.938 48.7961 22.938 48.7959 22.938 48.7956C22.938 48.7954 22.938 48.7951 22.938 48.7948C22.938 48.7946 22.938 48.7943 22.938 48.794C22.938 48.7938 22.938 48.7935 22.938 48.7932C22.938 48.793 22.938 48.7927 22.938 48.7924C22.938 48.7922 22.938 48.7919 22.938 48.7917C22.938 48.7914 22.938 48.7911 22.938 48.7909C22.938 48.7906 22.938 48.7903 22.938 48.7901C22.938 48.7898 22.938 48.7896 22.938 48.7893C22.938 48.789 22.938 48.7888 22.938 48.7885C22.938 48.7882 22.938 48.788 22.938 48.7877C22.938 48.7875 22.938 48.7872 22.938 48.7869C22.938 48.7867 22.938 48.7864 22.938 48.7862C22.938 48.7859 22.938 48.7856 22.938 48.7854C22.938 48.7851 22.938 48.7849 22.938 48.7846C22.938 48.7843 22.938 48.7841 22.938 48.7838C22.938 48.7836 22.938 48.7833 22.938 48.783C22.938 48.7828 22.938 48.7825 22.938 48.7823C22.938 48.782 22.938 48.7817 22.938 48.7815C22.938 48.7812 22.938 48.781 22.938 48.7807C22.938 48.7805 22.938 48.7802 22.938 48.7799C22.938 48.7797 22.938 48.7794 22.938 48.7792C22.938 48.7789 22.938 48.7787 22.938 48.7784C22.938 48.7781 22.938 48.7779 22.938 48.7776C22.938 48.7774 22.938 48.7771 22.938 48.7769C22.938 48.7766 22.938 48.7763 22.938 48.7761C22.938 48.7758 22.938 48.7756 22.938 48.7753C22.938 48.7751 22.938 48.7748 22.938 48.7745C22.938 48.7743 22.938 48.774 22.938 48.7738C22.938 48.7735 22.938 48.7733 22.938 48.773C22.938 48.7728 22.938 48.7725 22.938 48.7723C22.938 48.772 22.938 48.7717 22.938 48.7715C22.938 48.7712 22.938 48.771 22.938 48.7707C22.938 48.7705 22.938 48.7702 22.938 48.77C22.938 48.7697 22.938 48.7695 22.938 48.7692C22.938 48.769 22.938 48.7687 22.938 48.7685C22.938 48.7682 22.938 48.768 22.938 48.7677C22.938 48.7674 22.938 48.7672 22.938 48.7669C22.938 48.7667 22.938 48.7664 22.938 48.7662C22.938 48.7659 22.938 48.7657 22.938 48.7654C22.938 48.7652 22.938 48.7649 22.938 48.7647C22.938 48.7644 22.938 48.7642 22.938 48.7639C22.938 48.7637 22.938 48.7634 22.938 48.7632C22.938 48.7629 22.938 48.7627 22.938 48.7624C22.938 48.7622 22.938 48.7619 22.938 48.7617C22.938 48.7614 22.938 48.7612 22.938 48.7609C22.938 48.7607 22.938 48.7604 22.938 48.7602C22.938 48.7599 22.938 48.7597 22.938 48.7594C22.938 48.7592 22.938 48.759 22.938 48.7587C22.938 48.7585 22.938 48.7582 22.938 48.758C22.938 48.7577 22.938 48.7575 22.938 48.7572C22.938 48.757 22.938 48.7567 22.938 48.7565C22.938 48.7562 22.938 48.756 22.938 48.7557C22.938 48.7555 22.938 48.7552 22.938 48.755C22.938 48.7548 22.938 48.7545 22.938 48.7543C22.938 48.754 22.938 48.7538 22.938 48.7535C22.938 48.7533 22.938 48.753 22.938 48.7528C22.938 48.7525 22.938 48.7523 22.938 48.7521C22.938 48.7518 22.938 48.7516 22.938 48.7513C22.938 48.7511 22.938 48.7508 22.938 48.7506C22.938 48.7503 22.938 48.7501 22.938 48.7499C22.938 48.7496 22.938 48.7494 22.938 48.7491C22.938 48.7489 22.938 48.7486 22.938 48.7484C22.938 48.7482 22.938 48.7479 22.938 48.7477C22.938 48.7474 22.938 48.7472 22.938 48.7469C22.938 48.7467 22.938 48.7465 22.938 48.7462C22.938 48.746 22.938 48.7457 22.938 48.7455C22.938 48.7453 22.938 48.745 22.938 48.7448C22.938 48.7445 22.938 48.7443 22.938 48.744C22.938 48.7438 22.938 48.7436 22.938 48.7433C22.938 48.7431 22.938 48.7428 22.938 48.7426C22.938 48.7424 22.938 48.7421 22.938 48.7419C22.938 48.7416 22.938 48.7414 22.938 48.7412C22.938 48.7409 22.938 48.7407 22.938 48.7405C22.938 48.7402 22.938 48.74 22.938 48.7397C22.938 48.7395 22.938 48.7393 22.938 48.739C22.938 48.7388 22.938 48.7385 22.938 48.7383C22.938 48.7381 22.938 48.7378 22.938 48.7376C22.938 48.7374 22.938 48.7371 22.938 48.7369C22.938 48.7366 22.938 48.7364 22.938 48.7362C22.938 48.7359 22.938 48.7357 22.938 48.7355C22.938 48.7352 22.938 48.735 22.938 48.7348C22.938 48.7345 22.938 48.7343 22.938 48.734C22.938 48.7338 22.938 48.7336 22.938 48.7333C22.938 48.7331 22.938 48.7329 22.938 48.7326C22.938 48.7324 22.938 48.7322 22.938 48.7319C22.938 48.7317 22.938 48.7315 22.938 48.7312C22.938 48.731 22.938 48.7308 22.938 48.7305C22.938 48.7303 22.938 48.7301 22.938 48.7298C22.938 48.7296 22.938 48.7294 22.938 48.7291C22.938 48.7289 22.938 48.7287 22.938 48.7284C22.938 48.7282 22.938 48.728 22.938 48.7277C22.938 48.7275 22.938 48.7273 22.938 48.727C22.938 48.7268 22.938 48.7266 22.938 48.7263C22.938 48.7261 22.938 48.7259 22.938 48.7256C22.938 48.7254 22.938 48.7252 22.938 48.7249C22.938 48.7247 22.938 48.7245 22.938 48.7243C22.938 48.724 22.938 48.7238 22.938 48.7236C22.938 48.7233 22.938 48.7231 22.938 48.7229C22.938 48.7226 22.938 48.7224 22.938 48.7222C22.938 48.7219 22.938 48.7217 22.938 48.7215C22.938 48.7213 22.938 48.721 22.938 48.7208C22.938 48.7206 22.938 48.7203 22.938 48.7201C22.938 48.7199 22.938 48.7197 22.938 48.7194C22.938 48.7192 22.938 48.719 22.938 48.7187C22.938 48.7185 22.938 48.7183 22.938 48.7181C22.938 48.7178 22.938 48.7176 22.938 48.7174C22.938 48.7172 22.938 48.7169 22.938 48.7167C22.938 48.7165 22.938 48.7162 22.938 48.716C22.938 48.7158 22.938 48.7156 22.938 48.7153C22.938 48.7151 22.938 48.7149 22.938 48.7147C22.938 48.7144 22.938 48.7142 22.938 48.714C22.938 48.7138 22.938 48.7135 22.938 48.7133C22.938 48.7131 22.938 48.7129 22.938 48.7126C22.938 48.7124 22.938 48.7122 22.938 48.712C22.938 48.7117 22.938 48.7115 22.938 48.7113C22.938 48.7111 22.938 48.7108 22.938 48.7106C22.938 48.7104 22.938 48.7102 22.938 48.71C22.938 48.7097 22.938 48.7095 22.938 48.7093C22.938 48.7091 22.938 48.7088 22.938 48.7086C22.938 48.7084 22.938 48.7082 22.938 48.7079C22.938 48.7077 22.938 48.7075 22.938 48.7073C22.938 48.7071 22.938 48.7068 22.938 48.7066C22.938 48.7064 22.938 48.7062 22.938 48.706C22.938 48.7057 22.938 48.7055 22.938 48.7053C22.938 48.7051 22.938 48.7048 22.938 48.7046C22.938 48.7044 22.938 48.7042 22.938 48.704C22.938 48.7037 22.938 48.7035 22.938 48.7033C22.938 48.7031 22.938 48.7029 22.938 48.7026C22.938 48.7024 22.938 48.7022 22.938 48.702C22.938 48.7018 22.938 48.7016 22.938 48.7013C22.938 48.7011 22.938 48.7009 22.938 48.7007C22.938 48.7005 22.938 48.7002 22.938 48.7C22.938 48.6998 22.938 48.6996 22.938 48.6994C22.938 48.6992 22.938 48.6989 22.938 48.6987C22.938 48.6985 22.938 48.6983 22.938 48.6981C22.938 48.6979 22.938 48.6976 22.938 48.6974C22.938 48.6972 22.938 48.697 22.938 48.6968C22.938 48.6966 22.938 48.6963 22.938 48.6961C22.938 48.6959 22.938 48.6957 22.938 48.6955C22.938 48.6953 22.938 48.695 22.938 48.6948C22.938 48.6946 22.938 48.6944 22.938 48.6942C22.938 48.694 22.938 48.6938 22.938 48.6935C22.938 48.6933 22.938 48.6931 22.938 48.6929C22.938 48.6927 22.938 48.6925 22.938 48.6923C22.938 48.692 22.938 48.6918 22.938 48.6916C22.938 48.6914 22.938 48.6912 22.938 48.691C22.938 48.6908 22.938 48.6906 22.938 48.6903C22.938 48.6901 22.938 48.6899 22.938 48.6897C22.938 48.6895 22.938 48.6893 22.938 48.6891C22.938 48.6889 22.938 48.6886 22.938 48.6884C22.938 48.6882 22.938 48.688 22.938 48.6878C22.938 48.6876 22.938 48.6874 22.938 48.6872C22.938 48.687 22.938 48.6867 22.938 48.6865C22.938 48.6863 22.938 48.6861 22.938 48.6859C22.938 48.6857 22.938 48.6855 22.938 48.6853C22.938 48.6851 22.938 48.6849 22.938 48.6846C22.938 48.6844 22.938 48.6842 22.938 48.684C22.938 48.6838 22.938 48.6836 22.938 48.6834C22.938 48.6832 22.938 48.683 22.938 48.6828C22.938 48.6826 22.938 48.6824 22.938 48.6821C22.938 48.6819 22.938 48.6817 22.938 48.6815C22.938 48.6813 22.938 48.6811 22.938 48.6809C22.938 48.6807 22.938 48.6805 22.938 48.6803C22.938 48.6801 22.938 48.6799 22.938 48.6797C22.938 48.6794 22.938 48.6792 22.938 48.679C22.938 48.6788 22.938 48.6786 22.938 48.6784C22.938 48.6782 22.938 48.678 22.938 48.6778C22.938 48.6776 22.938 48.6774 22.938 48.6772C22.938 48.677 22.938 48.6768 22.938 48.6766C22.938 48.6764 22.938 48.6762 22.938 48.676C22.938 48.6758 22.938 48.6755 22.938 48.6753C22.938 48.6751 22.938 48.6749 22.938 48.6747C22.938 48.6745 22.938 48.6743 22.938 48.6741C22.938 48.6739 22.938 48.6737 22.938 48.6735C22.938 48.6733 22.938 48.6731 22.938 48.6729C22.938 48.6727 22.938 48.6725 22.938 48.6723C22.938 48.6721 22.938 48.6719 22.938 48.6717C22.938 48.6715 22.938 48.6713 22.938 48.6711C22.938 48.6709 22.938 48.6707 22.938 48.6705C22.938 48.6703 22.938 48.6701 22.938 48.6699C22.938 48.6697 22.938 48.6695 22.938 48.6693C22.938 48.6691 22.938 48.6689 22.938 48.6687C22.938 48.6685 22.938 48.6683 22.938 48.6681C22.938 48.6679 22.938 48.6677 22.938 48.6675C22.938 48.6673 22.938 48.6671 22.938 48.6669C22.938 48.6667 22.938 48.6665 22.938 48.6663C22.938 48.6661 22.938 48.6659 22.938 48.6657C22.938 48.6655 22.938 48.6653 22.938 48.6651C22.938 48.6649 22.938 48.6647 22.938 48.6645C22.938 48.6643 22.938 48.6641 22.938 48.6639C22.938 48.6637 22.938 48.6635 22.938 48.6633C22.938 48.6631 22.938 48.6629 22.938 48.6627C22.938 48.6625 22.938 48.6623 22.938 48.6621C22.938 48.6619 22.938 48.6617 22.938 48.6616C22.938 48.6614 22.938 48.6612 22.938 48.661C22.938 48.6608 22.938 48.6606 22.938 48.6604C22.938 48.6602 22.938 48.66 22.938 48.6598C22.938 48.6596 22.938 48.6594 22.938 48.6592C22.938 48.659 22.938 48.6588 22.938 48.6586C22.938 48.6584 22.938 48.6582 22.938 48.658C22.938 48.6579 22.938 48.6577 22.938 48.6575C22.938 48.6573 22.938 48.6571 22.938 48.6569C22.938 48.6567 22.938 48.6565 22.938 48.6563C22.938 48.6561 22.938 48.6559 22.938 48.6557C22.938 48.6555 22.938 48.6553 22.938 48.6552C22.938 48.655 22.938 48.6548 22.938 48.6546C22.938 48.6544 22.938 48.6542 22.938 48.654C22.938 48.6538 22.938 48.6536 22.938 48.6534C22.938 48.6532 22.938 48.653 22.938 48.6529C22.938 48.6527 22.938 48.6525 22.938 48.6523C22.938 48.6521 22.938 48.6519 22.938 48.6517C22.938 48.6515 22.938 48.6513 22.938 48.6511C22.938 48.651 22.938 48.6508 22.938 48.6506C22.938 48.6504 22.938 48.6502 22.938 48.65C22.938 48.6498 22.938 48.6496 22.938 48.6494C22.938 48.6493 22.938 48.6491 22.938 48.6489C22.938 48.6487 22.938 48.6485 22.938 48.6483C22.938 48.6481 22.938 48.6479 22.938 48.6478C22.938 48.6476 22.938 48.6474 22.938 48.6472C22.938 48.647 22.938 48.6468 22.938 48.6466C22.938 48.6465 22.938 48.6463 22.938 48.6461C22.938 48.6459 22.938 48.6457 22.938 48.6455C22.938 48.6453 22.938 48.6451 22.938 48.645C22.938 48.6448 22.938 48.6446 22.938 48.6444C22.938 48.6442 22.938 48.644 22.938 48.6439C22.938 48.6437 22.938 48.6435 22.938 48.6433C22.938 48.6431 22.938 48.6429 22.938 48.6427C22.938 48.6426 22.938 48.6424 22.938 48.6422C22.938 48.642 22.938 48.6418 22.938 48.6416C22.938 48.6415 22.938 48.6413 22.938 48.6411C22.938 48.6409 22.938 48.6407 22.938 48.6405C22.938 48.6404 22.938 48.6402 22.938 48.64H20.938ZM20.938 49.06C20.938 49.0604 20.938 49.0607 20.938 49.0611C20.938 49.0615 20.938 49.0618 20.938 49.0622C20.938 49.0625 20.938 49.0629 20.938 49.0633C20.938 49.0636 20.938 49.064 20.938 49.0644C20.938 49.0647 20.938 49.0651 20.938 49.0655C20.938 49.0658 20.938 49.0662 20.938 49.0665C20.938 49.0669 20.938 49.0673 20.938 49.0676C20.938 49.068 20.938 49.0684 20.938 49.0687C20.938 49.0691 20.938 49.0694 20.938 49.0698C20.938 49.0702 20.938 49.0705 20.938 49.0709C20.938 49.0712 20.938 49.0716 20.938 49.072C20.938 49.0723 20.938 49.0727 20.938 49.073C20.938 49.0734 20.938 49.0738 20.938 49.0741C20.938 49.0745 20.938 49.0748 20.938 49.0752C20.938 49.0756 20.938 49.0759 20.938 49.0763C20.938 49.0766 20.938 49.077 20.938 49.0774C20.938 49.0777 20.938 49.0781 20.938 49.0784C20.938 49.0788 20.938 49.0792 20.938 49.0795C20.938 49.0799 20.938 49.0802 20.938 49.0806C20.938 49.0809 20.938 49.0813 20.938 49.0817C20.938 49.082 20.938 49.0824 20.938 49.0827C20.938 49.0831 20.938 49.0834 20.938 49.0838C20.938 49.0842 20.938 49.0845 20.938 49.0849C20.938 49.0852 20.938 49.0856 20.938 49.0859C20.938 49.0863 20.938 49.0867 20.938 49.087C20.938 49.0874 20.938 49.0877 20.938 49.0881C20.938 49.0884 20.938 49.0888 20.938 49.0891C20.938 49.0895 20.938 49.0898 20.938 49.0902C20.938 49.0906 20.938 49.0909 20.938 49.0913C20.938 49.0916 20.938 49.092 20.938 49.0923C20.938 49.0927 20.938 49.093 20.938 49.0934C20.938 49.0937 20.938 49.0941 20.938 49.0944C20.938 49.0948 20.938 49.0952 20.938 49.0955C20.938 49.0959 20.938 49.0962 20.938 49.0966C20.938 49.0969 20.938 49.0973 20.938 49.0976C20.938 49.098 20.938 49.0983 20.938 49.0987C20.938 49.099 20.938 49.0994 20.938 49.0997C20.938 49.1001 20.938 49.1004 20.938 49.1008C20.938 49.1011 20.938 49.1015 20.938 49.1018C20.938 49.1022 20.938 49.1025 20.938 49.1029C20.938 49.1032 20.938 49.1036 20.938 49.1039C20.938 49.1043 20.938 49.1046 20.938 49.105C20.938 49.1053 20.938 49.1057 20.938 49.106C20.938 49.1064 20.938 49.1067 20.938 49.1071C20.938 49.1074 20.938 49.1078 20.938 49.1081C20.938 49.1085 20.938 49.1088 20.938 49.1092C20.938 49.1095 20.938 49.1099 20.938 49.1102C20.938 49.1106 20.938 49.1109 20.938 49.1113C20.938 49.1116 20.938 49.112 20.938 49.1123C20.938 49.1127 20.938 49.113 20.938 49.1133C20.938 49.1137 20.938 49.114 20.938 49.1144C20.938 49.1147 20.938 49.1151 20.938 49.1154C20.938 49.1158 20.938 49.1161 20.938 49.1165C20.938 49.1168 20.938 49.1172 20.938 49.1175C20.938 49.1178 20.938 49.1182 20.938 49.1185C20.938 49.1189 20.938 49.1192 20.938 49.1196C20.938 49.1199 20.938 49.1203 20.938 49.1206C20.938 49.121 20.938 49.1213 20.938 49.1216C20.938 49.122 20.938 49.1223 20.938 49.1227C20.938 49.123 20.938 49.1234 20.938 49.1237C20.938 49.124 20.938 49.1244 20.938 49.1247C20.938 49.1251 20.938 49.1254 20.938 49.1258C20.938 49.1261 20.938 49.1264 20.938 49.1268C20.938 49.1271 20.938 49.1275 20.938 49.1278C20.938 49.1282 20.938 49.1285 20.938 49.1288C20.938 49.1292 20.938 49.1295 20.938 49.1299C20.938 49.1302 20.938 49.1305 20.938 49.1309C20.938 49.1312 20.938 49.1316 20.938 49.1319C20.938 49.1322 20.938 49.1326 20.938 49.1329C20.938 49.1333 20.938 49.1336 20.938 49.1339C20.938 49.1343 20.938 49.1346 20.938 49.135C20.938 49.1353 20.938 49.1356 20.938 49.136C20.938 49.1363 20.938 49.1367 20.938 49.137C20.938 49.1373 20.938 49.1377 20.938 49.138C20.938 49.1383 20.938 49.1387 20.938 49.139C20.938 49.1394 20.938 49.1397 20.938 49.14C20.938 49.1404 20.938 49.1407 20.938 49.1411C20.938 49.1414 20.938 49.1417 20.938 49.1421C20.938 49.1424 20.938 49.1427 20.938 49.1431C20.938 49.1434 20.938 49.1437 20.938 49.1441C20.938 49.1444 20.938 49.1448 20.938 49.1451C20.938 49.1454 20.938 49.1458 20.938 49.1461C20.938 49.1464 20.938 49.1468 20.938 49.1471C20.938 49.1474 20.938 49.1478 20.938 49.1481C20.938 49.1484 20.938 49.1488 20.938 49.1491C20.938 49.1494 20.938 49.1498 20.938 49.1501C20.938 49.1504 20.938 49.1508 20.938 49.1511C20.938 49.1514 20.938 49.1518 20.938 49.1521C20.938 49.1524 20.938 49.1528 20.938 49.1531C20.938 49.1534 20.938 49.1538 20.938 49.1541C20.938 49.1544 20.938 49.1548 20.938 49.1551C20.938 49.1554 20.938 49.1558 20.938 49.1561C20.938 49.1564 20.938 49.1568 20.938 49.1571C20.938 49.1574 20.938 49.1578 20.938 49.1581C20.938 49.1584 20.938 49.1588 20.938 49.1591C20.938 49.1594 20.938 49.1597 20.938 49.1601C20.938 49.1604 20.938 49.1607 20.938 49.1611C20.938 49.1614 20.938 49.1617 20.938 49.1621C20.938 49.1624 20.938 49.1627 20.938 49.163C20.938 49.1634 20.938 49.1637 20.938 49.164C20.938 49.1644 20.938 49.1647 20.938 49.165C20.938 49.1653 20.938 49.1657 20.938 49.166C20.938 49.1663 20.938 49.1667 20.938 49.167C20.938 49.1673 20.938 49.1676 20.938 49.168C20.938 49.1683 20.938 49.1686 20.938 49.169C20.938 49.1693 20.938 49.1696 20.938 49.1699C20.938 49.1703 20.938 49.1706 20.938 49.1709C20.938 49.1712 20.938 49.1716 20.938 49.1719C20.938 49.1722 20.938 49.1725 20.938 49.1729C20.938 49.1732 20.938 49.1735 20.938 49.1738C20.938 49.1742 20.938 49.1745 20.938 49.1748C20.938 49.1751 20.938 49.1755 20.938 49.1758C20.938 49.1761 20.938 49.1764 20.938 49.1768C20.938 49.1771 20.938 49.1774 20.938 49.1777C20.938 49.1781 20.938 49.1784 20.938 49.1787C20.938 49.179 20.938 49.1794 20.938 49.1797C20.938 49.18 20.938 49.1803 20.938 49.1807C20.938 49.181 20.938 49.1813 20.938 49.1816C20.938 49.1819 20.938 49.1823 20.938 49.1826C20.938 49.1829 20.938 49.1832 20.938 49.1836C20.938 49.1839 20.938 49.1842 20.938 49.1845C20.938 49.1848 20.938 49.1852 20.938 49.1855C20.938 49.1858 20.938 49.1861 20.938 49.1864C20.938 49.1868 20.938 49.1871 20.938 49.1874C20.938 49.1877 20.938 49.1881 20.938 49.1884C20.938 49.1887 20.938 49.189 20.938 49.1893C20.938 49.1897 20.938 49.19 20.938 49.1903C20.938 49.1906 20.938 49.1909 20.938 49.1912C20.938 49.1916 20.938 49.1919 20.938 49.1922C20.938 49.1925 20.938 49.1928 20.938 49.1932C20.938 49.1935 20.938 49.1938 20.938 49.1941C20.938 49.1944 20.938 49.1947 20.938 49.1951C20.938 49.1954 20.938 49.1957 20.938 49.196C20.938 49.1963 20.938 49.1967 20.938 49.197C20.938 49.1973 20.938 49.1976 20.938 49.1979C20.938 49.1982 20.938 49.1986 20.938 49.1989C20.938 49.1992 20.938 49.1995 20.938 49.1998C20.938 49.2001 20.938 49.2004 20.938 49.2008C20.938 49.2011 20.938 49.2014 20.938 49.2017C20.938 49.202 20.938 49.2023 20.938 49.2027C20.938 49.203 20.938 49.2033 20.938 49.2036C20.938 49.2039 20.938 49.2042 20.938 49.2045C20.938 49.2049 20.938 49.2052 20.938 49.2055C20.938 49.2058 20.938 49.2061 20.938 49.2064C20.938 49.2067 20.938 49.207 20.938 49.2074C20.938 49.2077 20.938 49.208 20.938 49.2083C20.938 49.2086 20.938 49.2089 20.938 49.2092C20.938 49.2096 20.938 49.2099 20.938 49.2102C20.938 49.2105 20.938 49.2108 20.938 49.2111C20.938 49.2114 20.938 49.2117 20.938 49.212C20.938 49.2124 20.938 49.2127 20.938 49.213C20.938 49.2133 20.938 49.2136 20.938 49.2139C20.938 49.2142 20.938 49.2145 20.938 49.2148C20.938 49.2151 20.938 49.2155 20.938 49.2158C20.938 49.2161 20.938 49.2164 20.938 49.2167C20.938 49.217 20.938 49.2173 20.938 49.2176C20.938 49.2179 20.938 49.2182 20.938 49.2186C20.938 49.2189 20.938 49.2192 20.938 49.2195C20.938 49.2198 20.938 49.2201 20.938 49.2204C20.938 49.2207 20.938 49.221 20.938 49.2213C20.938 49.2216 20.938 49.2219 20.938 49.2222C20.938 49.2226 20.938 49.2229 20.938 49.2232C20.938 49.2235 20.938 49.2238 20.938 49.2241C20.938 49.2244 20.938 49.2247 20.938 49.225C20.938 49.2253 20.938 49.2256 20.938 49.2259C20.938 49.2262 20.938 49.2265 20.938 49.2268C20.938 49.2271 20.938 49.2275 20.938 49.2278C20.938 49.2281 20.938 49.2284 20.938 49.2287C20.938 49.229 20.938 49.2293 20.938 49.2296C20.938 49.2299 20.938 49.2302 20.938 49.2305C20.938 49.2308 20.938 49.2311 20.938 49.2314C20.938 49.2317 20.938 49.232 20.938 49.2323C20.938 49.2326 20.938 49.2329 20.938 49.2332C20.938 49.2335 20.938 49.2338 20.938 49.2341C20.938 49.2344 20.938 49.2347 20.938 49.235C20.938 49.2353 20.938 49.2357 20.938 49.236C20.938 49.2363 20.938 49.2366 20.938 49.2369C20.938 49.2372 20.938 49.2375 20.938 49.2378C20.938 49.2381 20.938 49.2384 20.938 49.2387C20.938 49.239 20.938 49.2393 20.938 49.2396C20.938 49.2399 20.938 49.2402 20.938 49.2405C20.938 49.2408 20.938 49.2411 20.938 49.2414C20.938 49.2417 20.938 49.242 20.938 49.2423C20.938 49.2426 20.938 49.2429 20.938 49.2432C20.938 49.2435 20.938 49.2438 20.938 49.2441C20.938 49.2444 20.938 49.2447 20.938 49.245C20.938 49.2453 20.938 49.2456 20.938 49.2459C20.938 49.2462 20.938 49.2464 20.938 49.2467C20.938 49.247 20.938 49.2473 20.938 49.2476C20.938 49.2479 20.938 49.2482 20.938 49.2485C20.938 49.2488 20.938 49.2491 20.938 49.2494C20.938 49.2497 20.938 49.25 20.938 49.2503C20.938 49.2506 20.938 49.2509 20.938 49.2512C20.938 49.2515 20.938 49.2518 20.938 49.2521C20.938 49.2524 20.938 49.2527 20.938 49.253C20.938 49.2533 20.938 49.2536 20.938 49.2539C20.938 49.2542 20.938 49.2544 20.938 49.2547C20.938 49.255 20.938 49.2553 20.938 49.2556C20.938 49.2559 20.938 49.2562 20.938 49.2565C20.938 49.2568 20.938 49.2571 20.938 49.2574C20.938 49.2577 20.938 49.258 20.938 49.2583C20.938 49.2586 20.938 49.2589 20.938 49.2591C20.938 49.2594 20.938 49.2597 20.938 49.26C20.938 49.2603 20.938 49.2606 20.938 49.2609C20.938 49.2612 20.938 49.2615 20.938 49.2618C20.938 49.2621 20.938 49.2624 20.938 49.2626C20.938 49.2629 20.938 49.2632 20.938 49.2635C20.938 49.2638 20.938 49.2641 20.938 49.2644C20.938 49.2647 20.938 49.265 20.938 49.2653C20.938 49.2656 20.938 49.2658 20.938 49.2661C20.938 49.2664 20.938 49.2667 20.938 49.267C20.938 49.2673 20.938 49.2676 20.938 49.2679C20.938 49.2682 20.938 49.2684 20.938 49.2687C20.938 49.269 20.938 49.2693 20.938 49.2696C20.938 49.2699 20.938 49.2702 20.938 49.2705C20.938 49.2708 20.938 49.271 20.938 49.2713C20.938 49.2716 20.938 49.2719 20.938 49.2722C20.938 49.2725 20.938 49.2728 20.938 49.2731C20.938 49.2733 20.938 49.2736 20.938 49.2739C20.938 49.2742 20.938 49.2745 20.938 49.2748C20.938 49.2751 20.938 49.2753 20.938 49.2756C20.938 49.2759 20.938 49.2762 20.938 49.2765C20.938 49.2768 20.938 49.2771 20.938 49.2773C20.938 49.2776 20.938 49.2779 20.938 49.2782C20.938 49.2785 20.938 49.2788 20.938 49.2791C20.938 49.2793 20.938 49.2796 20.938 49.2799C20.938 49.2802 20.938 49.2805 20.938 49.2808C20.938 49.281 20.938 49.2813 20.938 49.2816C20.938 49.2819 20.938 49.2822 20.938 49.2825C20.938 49.2827 20.938 49.283 20.938 49.2833C20.938 49.2836 20.938 49.2839 20.938 49.2842C20.938 49.2844 20.938 49.2847 20.938 49.285C20.938 49.2853 20.938 49.2856 20.938 49.2858C20.938 49.2861 20.938 49.2864 20.938 49.2867C20.938 49.287 20.938 49.2873 20.938 49.2875C20.938 49.2878 20.938 49.2881 20.938 49.2884C20.938 49.2887 20.938 49.2889 20.938 49.2892C20.938 49.2895 20.938 49.2898 20.938 49.2901C20.938 49.2903 20.938 49.2906 20.938 49.2909C20.938 49.2912 20.938 49.2915 20.938 49.2917C20.938 49.292 20.938 49.2923 20.938 49.2926C20.938 49.2929 20.938 49.2931 20.938 49.2934C20.938 49.2937 20.938 49.294 20.938 49.2942C20.938 49.2945 20.938 49.2948 20.938 49.2951C20.938 49.2954 20.938 49.2956 20.938 49.2959C20.938 49.2962 20.938 49.2965 20.938 49.2967C20.938 49.297 20.938 49.2973 20.938 49.2976C20.938 49.2978 20.938 49.2981 20.938 49.2984C20.938 49.2987 20.938 49.299 20.938 49.2992C20.938 49.2995 20.938 49.2998 20.938 49.3001C20.938 49.3003 20.938 49.3006 20.938 49.3009C20.938 49.3012 20.938 49.3014 20.938 49.3017C20.938 49.302 20.938 49.3023 20.938 49.3025C20.938 49.3028 20.938 49.3031 20.938 49.3034C20.938 49.3036 20.938 49.3039 20.938 49.3042C20.938 49.3044 20.938 49.3047 20.938 49.305C20.938 49.3053 20.938 49.3055 20.938 49.3058C20.938 49.3061 20.938 49.3064 20.938 49.3066C20.938 49.3069 20.938 49.3072 20.938 49.3075C20.938 49.3077 20.938 49.308 20.938 49.3083C20.938 49.3085 20.938 49.3088 20.938 49.3091C20.938 49.3094 20.938 49.3096 20.938 49.3099C20.938 49.3102 20.938 49.3104 20.938 49.3107C20.938 49.311 20.938 49.3113 20.938 49.3115C20.938 49.3118 20.938 49.3121 20.938 49.3123C20.938 49.3126 20.938 49.3129 20.938 49.3131C20.938 49.3134 20.938 49.3137 20.938 49.314C20.938 49.3142 20.938 49.3145 20.938 49.3148C20.938 49.315 20.938 49.3153 20.938 49.3156C20.938 49.3158 20.938 49.3161 20.938 49.3164C20.938 49.3166 20.938 49.3169 20.938 49.3172C20.938 49.3174 20.938 49.3177 20.938 49.318C20.938 49.3183 20.938 49.3185 20.938 49.3188C20.938 49.3191 20.938 49.3193 20.938 49.3196C20.938 49.3199 20.938 49.3201 20.938 49.3204C20.938 49.3207 20.938 49.3209 20.938 49.3212C20.938 49.3215 20.938 49.3217 20.938 49.322C20.938 49.3223 20.938 49.3225 20.938 49.3228C20.938 49.3231 20.938 49.3233 20.938 49.3236C20.938 49.3238 20.938 49.3241 20.938 49.3244C20.938 49.3246 20.938 49.3249 20.938 49.3252C20.938 49.3254 20.938 49.3257 20.938 49.326C20.938 49.3262 20.938 49.3265 20.938 49.3268C20.938 49.327 20.938 49.3273 20.938 49.3275C20.938 49.3278 20.938 49.3281 20.938 49.3283C20.938 49.3286 20.938 49.3289 20.938 49.3291C20.938 49.3294 20.938 49.3297 20.938 49.3299C20.938 49.3302 20.938 49.3304 20.938 49.3307C20.938 49.331 20.938 49.3312 20.938 49.3315C20.938 49.3317 20.938 49.332 20.938 49.3323C20.938 49.3325 20.938 49.3328 20.938 49.3331C20.938 49.3333 20.938 49.3336 20.938 49.3338C20.938 49.3341 20.938 49.3344 20.938 49.3346C20.938 49.3349 20.938 49.3351 20.938 49.3354C20.938 49.3357 20.938 49.3359 20.938 49.3362C20.938 49.3364 20.938 49.3367 20.938 49.337C20.938 49.3372 20.938 49.3375 20.938 49.3377C20.938 49.338 20.938 49.3382 20.938 49.3385C20.938 49.3388 20.938 49.339 20.938 49.3393C20.938 49.3395 20.938 49.3398 20.938 49.3401C20.938 49.3403 20.938 49.3406 20.938 49.3408C20.938 49.3411 20.938 49.3413 20.938 49.3416C20.938 49.3419 20.938 49.3421 20.938 49.3424C20.938 49.3426 20.938 49.3429 20.938 49.3431C20.938 49.3434 20.938 49.3437 20.938 49.3439C20.938 49.3442 20.938 49.3444 20.938 49.3447C20.938 49.3449 20.938 49.3452 20.938 49.3454C20.938 49.3457 20.938 49.346 20.938 49.3462C20.938 49.3465 20.938 49.3467 20.938 49.347C20.938 49.3472 20.938 49.3475 20.938 49.3477C20.938 49.348 20.938 49.3482 20.938 49.3485C20.938 49.3488 20.938 49.349 20.938 49.3493C20.938 49.3495 20.938 49.3498 20.938 49.35C20.938 49.3503 20.938 49.3505 20.938 49.3508C20.938 49.351 20.938 49.3513 20.938 49.3515C20.938 49.3518 20.938 49.352 20.938 49.3523C20.938 49.3525 20.938 49.3528 20.938 49.353C20.938 49.3533 20.938 49.3536 20.938 49.3538C20.938 49.3541 20.938 49.3543 20.938 49.3546C20.938 49.3548 20.938 49.3551 20.938 49.3553C20.938 49.3556 20.938 49.3558 20.938 49.3561C20.938 49.3563 20.938 49.3566 20.938 49.3568C20.938 49.3571 20.938 49.3573 20.938 49.3576C20.938 49.3578 20.938 49.3581 20.938 49.3583C20.938 49.3586 20.938 49.3588 20.938 49.3591C20.938 49.3593 20.938 49.3596 20.938 49.3598C20.938 49.3601 20.938 49.3603 20.938 49.3605C20.938 49.3608 20.938 49.361 20.938 49.3613C20.938 49.3615 20.938 49.3618 20.938 49.362C20.938 49.3623 20.938 49.3625 20.938 49.3628C20.938 49.363 20.938 49.3633 20.938 49.3635C20.938 49.3638 20.938 49.364 20.938 49.3643C20.938 49.3645 20.938 49.3647 20.938 49.365C20.938 49.3652 20.938 49.3655 20.938 49.3657C20.938 49.366 20.938 49.3662 20.938 49.3665C20.938 49.3667 20.938 49.367 20.938 49.3672C20.938 49.3674 20.938 49.3677 20.938 49.3679C20.938 49.3682 20.938 49.3684 20.938 49.3687C20.938 49.3689 20.938 49.3692 20.938 49.3694C20.938 49.3696 20.938 49.3699 20.938 49.3701C20.938 49.3704 20.938 49.3706 20.938 49.3709C20.938 49.3711 20.938 49.3714 20.938 49.3716C20.938 49.3718 20.938 49.3721 20.938 49.3723C20.938 49.3726 20.938 49.3728 20.938 49.373C20.938 49.3733 20.938 49.3735 20.938 49.3738C20.938 49.374 20.938 49.3743 20.938 49.3745C20.938 49.3747 20.938 49.375 20.938 49.3752C20.938 49.3755 20.938 49.3757 20.938 49.3759C20.938 49.3762 20.938 49.3764 20.938 49.3767C20.938 49.3769 20.938 49.3771 20.938 49.3774C20.938 49.3776 20.938 49.3779 20.938 49.3781C20.938 49.3783 20.938 49.3786 20.938 49.3788C20.938 49.3791 20.938 49.3793 20.938 49.3795C20.938 49.3798 20.938 49.38 20.938 49.3803C20.938 49.3805 20.938 49.3807 20.938 49.381C20.938 49.3812 20.938 49.3814 20.938 49.3817C20.938 49.3819 20.938 49.3822 20.938 49.3824C20.938 49.3826 20.938 49.3829 20.938 49.3831C20.938 49.3833 20.938 49.3836 20.938 49.3838C20.938 49.3841 20.938 49.3843 20.938 49.3845C20.938 49.3848 20.938 49.385 20.938 49.3852C20.938 49.3855 20.938 49.3857 20.938 49.3859C20.938 49.3862 20.938 49.3864 20.938 49.3867C20.938 49.3869 20.938 49.3871 20.938 49.3874C20.938 49.3876 20.938 49.3878 20.938 49.3881C20.938 49.3883 20.938 49.3885 20.938 49.3888C20.938 49.389 20.938 49.3892 20.938 49.3895C20.938 49.3897 20.938 49.3899 20.938 49.3902C20.938 49.3904 20.938 49.3906 20.938 49.3909C20.938 49.3911 20.938 49.3913 20.938 49.3916C20.938 49.3918 20.938 49.392 20.938 49.3923C20.938 49.3925 20.938 49.3927 20.938 49.393C20.938 49.3932 20.938 49.3934 20.938 49.3937C20.938 49.3939 20.938 49.3941 20.938 49.3944C20.938 49.3946 20.938 49.3948 20.938 49.3951C20.938 49.3953 20.938 49.3955 20.938 49.3957C20.938 49.396 20.938 49.3962 20.938 49.3964C20.938 49.3967 20.938 49.3969 20.938 49.3971C20.938 49.3974 20.938 49.3976 20.938 49.3978C20.938 49.398 20.938 49.3983 20.938 49.3985C20.938 49.3987 20.938 49.399 20.938 49.3992C20.938 49.3994 20.938 49.3996 20.938 49.3999C20.938 49.4001 20.938 49.4003 20.938 49.4006C20.938 49.4008 20.938 49.401 20.938 49.4012C20.938 49.4015 20.938 49.4017 20.938 49.4019C20.938 49.4022 20.938 49.4024 20.938 49.4026C20.938 49.4028 20.938 49.4031 20.938 49.4033C20.938 49.4035 20.938 49.4037 20.938 49.404C20.938 49.4042 20.938 49.4044 20.938 49.4047C20.938 49.4049 20.938 49.4051 20.938 49.4053C20.938 49.4056 20.938 49.4058 20.938 49.406C20.938 49.4062 20.938 49.4065 20.938 49.4067C20.938 49.4069 20.938 49.4071 20.938 49.4074C20.938 49.4076 20.938 49.4078 20.938 49.408C20.938 49.4083 20.938 49.4085 20.938 49.4087C20.938 49.4089 20.938 49.4091 20.938 49.4094C20.938 49.4096 20.938 49.4098 20.938 49.41C20.938 49.4103 20.938 49.4105 20.938 49.4107C20.938 49.4109 20.938 49.4112 20.938 49.4114C20.938 49.4116 20.938 49.4118 20.938 49.412C20.938 49.4123 20.938 49.4125 20.938 49.4127C20.938 49.4129 20.938 49.4132 20.938 49.4134C20.938 49.4136 20.938 49.4138 20.938 49.414C20.938 49.4143 20.938 49.4145 20.938 49.4147C20.938 49.4149 20.938 49.4151 20.938 49.4154C20.938 49.4156 20.938 49.4158 20.938 49.416C20.938 49.4162 20.938 49.4165 20.938 49.4167C20.938 49.4169 20.938 49.4171 20.938 49.4173C20.938 49.4176 20.938 49.4178 20.938 49.418C20.938 49.4182 20.938 49.4184 20.938 49.4187C20.938 49.4189 20.938 49.4191 20.938 49.4193C20.938 49.4195 20.938 49.4198 20.938 49.42C20.938 49.4202 20.938 49.4204 20.938 49.4206C20.938 49.4208 20.938 49.4211 20.938 49.4213C20.938 49.4215 20.938 49.4217 20.938 49.4219C20.938 49.4221 20.938 49.4224 20.938 49.4226C20.938 49.4228 20.938 49.423 20.938 49.4232C20.938 49.4234 20.938 49.4237 20.938 49.4239C20.938 49.4241 20.938 49.4243 20.938 49.4245C20.938 49.4247 20.938 49.4249 20.938 49.4252C20.938 49.4254 20.938 49.4256 20.938 49.4258C20.938 49.426 20.938 49.4262 20.938 49.4265C20.938 49.4267 20.938 49.4269 20.938 49.4271C20.938 49.4273 20.938 49.4275 20.938 49.4277C20.938 49.4279 20.938 49.4282 20.938 49.4284C20.938 49.4286 20.938 49.4288 20.938 49.429C20.938 49.4292 20.938 49.4294 20.938 49.4297C20.938 49.4299 20.938 49.4301 20.938 49.4303C20.938 49.4305 20.938 49.4307 20.938 49.4309C20.938 49.4311 20.938 49.4314 20.938 49.4316C20.938 49.4318 20.938 49.432 20.938 49.4322C20.938 49.4324 20.938 49.4326 20.938 49.4328C20.938 49.433 20.938 49.4333 20.938 49.4335C20.938 49.4337 20.938 49.4339 20.938 49.4341C20.938 49.4343 20.938 49.4345 20.938 49.4347C20.938 49.4349 20.938 49.4351 20.938 49.4353C20.938 49.4356 20.938 49.4358 20.938 49.436C20.938 49.4362 20.938 49.4364 20.938 49.4366C20.938 49.4368 20.938 49.437 20.938 49.4372C20.938 49.4374 20.938 49.4376 20.938 49.4379C20.938 49.4381 20.938 49.4383 20.938 49.4385C20.938 49.4387 20.938 49.4389 20.938 49.4391C20.938 49.4393 20.938 49.4395 20.938 49.4397C20.938 49.4399 20.938 49.4401 20.938 49.4403C20.938 49.4405 20.938 49.4408 20.938 49.441C20.938 49.4412 20.938 49.4414 20.938 49.4416C20.938 49.4418 20.938 49.442 20.938 49.4422C20.938 49.4424 20.938 49.4426 20.938 49.4428C20.938 49.443 20.938 49.4432 20.938 49.4434C20.938 49.4436 20.938 49.4438 20.938 49.444C20.938 49.4442 20.938 49.4444 20.938 49.4446C20.938 49.4449 20.938 49.4451 20.938 49.4453C20.938 49.4455 20.938 49.4457 20.938 49.4459C20.938 49.4461 20.938 49.4463 20.938 49.4465C20.938 49.4467 20.938 49.4469 20.938 49.4471C20.938 49.4473 20.938 49.4475 20.938 49.4477C20.938 49.4479 20.938 49.4481 20.938 49.4483C20.938 49.4485 20.938 49.4487 20.938 49.4489C20.938 49.4491 20.938 49.4493 20.938 49.4495C20.938 49.4497 20.938 49.4499 20.938 49.4501C20.938 49.4503 20.938 49.4505 20.938 49.4507C20.938 49.4509 20.938 49.4511 20.938 49.4513C20.938 49.4515 20.938 49.4517 20.938 49.4519C20.938 49.4521 20.938 49.4523 20.938 49.4525C20.938 49.4527 20.938 49.4529 20.938 49.4531C20.938 49.4533 20.938 49.4535 20.938 49.4537C20.938 49.4539 20.938 49.4541 20.938 49.4543C20.938 49.4545 20.938 49.4547 20.938 49.4549C20.938 49.4551 20.938 49.4553 20.938 49.4555C20.938 49.4557 20.938 49.4559 20.938 49.4561C20.938 49.4563 20.938 49.4565 20.938 49.4567C20.938 49.4569 20.938 49.4571 20.938 49.4573C20.938 49.4575 20.938 49.4577 20.938 49.4579C20.938 49.4581 20.938 49.4582 20.938 49.4584C20.938 49.4586 20.938 49.4588 20.938 49.459C20.938 49.4592 20.938 49.4594 20.938 49.4596C20.938 49.4598 20.938 49.46 20.938 49.4602C20.938 49.4604 20.938 49.4606 20.938 49.4608C20.938 49.461 20.938 49.4612 20.938 49.4614C20.938 49.4616 20.938 49.4618 20.938 49.4619C20.938 49.4621 20.938 49.4623 20.938 49.4625C20.938 49.4627 20.938 49.4629 20.938 49.4631C20.938 49.4633 20.938 49.4635 20.938 49.4637C20.938 49.4639 20.938 49.4641 20.938 49.4643C20.938 49.4645 20.938 49.4646 20.938 49.4648C20.938 49.465 20.938 49.4652 20.938 49.4654C20.938 49.4656 20.938 49.4658 20.938 49.466C20.938 49.4662 20.938 49.4664 20.938 49.4666C20.938 49.4668 20.938 49.4669 20.938 49.4671C20.938 49.4673 20.938 49.4675 20.938 49.4677C20.938 49.4679 20.938 49.4681 20.938 49.4683C20.938 49.4685 20.938 49.4687 20.938 49.4688C20.938 49.469 20.938 49.4692 20.938 49.4694C20.938 49.4696 20.938 49.4698 20.938 49.47C20.938 49.4702 20.938 49.4704 20.938 49.4705C20.938 49.4707 20.938 49.4709 20.938 49.4711C20.938 49.4713 20.938 49.4715 20.938 49.4717C20.938 49.4719 20.938 49.472 20.938 49.4722C20.938 49.4724 20.938 49.4726 20.938 49.4728C20.938 49.473 20.938 49.4732 20.938 49.4734C20.938 49.4735 20.938 49.4737 20.938 49.4739C20.938 49.4741 20.938 49.4743 20.938 49.4745C20.938 49.4747 20.938 49.4748 20.938 49.475C20.938 49.4752 20.938 49.4754 20.938 49.4756C20.938 49.4758 20.938 49.476 20.938 49.4761C20.938 49.4763 20.938 49.4765 20.938 49.4767C20.938 49.4769 20.938 49.4771 20.938 49.4772C20.938 49.4774 20.938 49.4776 20.938 49.4778C20.938 49.478 20.938 49.4782 20.938 49.4783C20.938 49.4785 20.938 49.4787 20.938 49.4789C20.938 49.4791 20.938 49.4793 20.938 49.4794C20.938 49.4796 20.938 49.4798 20.938 49.48H22.938C22.938 49.4798 22.938 49.4796 22.938 49.4794C22.938 49.4793 22.938 49.4791 22.938 49.4789C22.938 49.4787 22.938 49.4785 22.938 49.4783C22.938 49.4782 22.938 49.478 22.938 49.4778C22.938 49.4776 22.938 49.4774 22.938 49.4772C22.938 49.4771 22.938 49.4769 22.938 49.4767C22.938 49.4765 22.938 49.4763 22.938 49.4761C22.938 49.476 22.938 49.4758 22.938 49.4756C22.938 49.4754 22.938 49.4752 22.938 49.475C22.938 49.4748 22.938 49.4747 22.938 49.4745C22.938 49.4743 22.938 49.4741 22.938 49.4739C22.938 49.4737 22.938 49.4735 22.938 49.4734C22.938 49.4732 22.938 49.473 22.938 49.4728C22.938 49.4726 22.938 49.4724 22.938 49.4722C22.938 49.472 22.938 49.4719 22.938 49.4717C22.938 49.4715 22.938 49.4713 22.938 49.4711C22.938 49.4709 22.938 49.4707 22.938 49.4705C22.938 49.4704 22.938 49.4702 22.938 49.47C22.938 49.4698 22.938 49.4696 22.938 49.4694C22.938 49.4692 22.938 49.469 22.938 49.4688C22.938 49.4687 22.938 49.4685 22.938 49.4683C22.938 49.4681 22.938 49.4679 22.938 49.4677C22.938 49.4675 22.938 49.4673 22.938 49.4671C22.938 49.4669 22.938 49.4668 22.938 49.4666C22.938 49.4664 22.938 49.4662 22.938 49.466C22.938 49.4658 22.938 49.4656 22.938 49.4654C22.938 49.4652 22.938 49.465 22.938 49.4648C22.938 49.4646 22.938 49.4645 22.938 49.4643C22.938 49.4641 22.938 49.4639 22.938 49.4637C22.938 49.4635 22.938 49.4633 22.938 49.4631C22.938 49.4629 22.938 49.4627 22.938 49.4625C22.938 49.4623 22.938 49.4621 22.938 49.4619C22.938 49.4618 22.938 49.4616 22.938 49.4614C22.938 49.4612 22.938 49.461 22.938 49.4608C22.938 49.4606 22.938 49.4604 22.938 49.4602C22.938 49.46 22.938 49.4598 22.938 49.4596C22.938 49.4594 22.938 49.4592 22.938 49.459C22.938 49.4588 22.938 49.4586 22.938 49.4584C22.938 49.4582 22.938 49.4581 22.938 49.4579C22.938 49.4577 22.938 49.4575 22.938 49.4573C22.938 49.4571 22.938 49.4569 22.938 49.4567C22.938 49.4565 22.938 49.4563 22.938 49.4561C22.938 49.4559 22.938 49.4557 22.938 49.4555C22.938 49.4553 22.938 49.4551 22.938 49.4549C22.938 49.4547 22.938 49.4545 22.938 49.4543C22.938 49.4541 22.938 49.4539 22.938 49.4537C22.938 49.4535 22.938 49.4533 22.938 49.4531C22.938 49.4529 22.938 49.4527 22.938 49.4525C22.938 49.4523 22.938 49.4521 22.938 49.4519C22.938 49.4517 22.938 49.4515 22.938 49.4513C22.938 49.4511 22.938 49.4509 22.938 49.4507C22.938 49.4505 22.938 49.4503 22.938 49.4501C22.938 49.4499 22.938 49.4497 22.938 49.4495C22.938 49.4493 22.938 49.4491 22.938 49.4489C22.938 49.4487 22.938 49.4485 22.938 49.4483C22.938 49.4481 22.938 49.4479 22.938 49.4477C22.938 49.4475 22.938 49.4473 22.938 49.4471C22.938 49.4469 22.938 49.4467 22.938 49.4465C22.938 49.4463 22.938 49.4461 22.938 49.4459C22.938 49.4457 22.938 49.4455 22.938 49.4453C22.938 49.4451 22.938 49.4449 22.938 49.4446C22.938 49.4444 22.938 49.4442 22.938 49.444C22.938 49.4438 22.938 49.4436 22.938 49.4434C22.938 49.4432 22.938 49.443 22.938 49.4428C22.938 49.4426 22.938 49.4424 22.938 49.4422C22.938 49.442 22.938 49.4418 22.938 49.4416C22.938 49.4414 22.938 49.4412 22.938 49.441C22.938 49.4408 22.938 49.4405 22.938 49.4403C22.938 49.4401 22.938 49.4399 22.938 49.4397C22.938 49.4395 22.938 49.4393 22.938 49.4391C22.938 49.4389 22.938 49.4387 22.938 49.4385C22.938 49.4383 22.938 49.4381 22.938 49.4379C22.938 49.4376 22.938 49.4374 22.938 49.4372C22.938 49.437 22.938 49.4368 22.938 49.4366C22.938 49.4364 22.938 49.4362 22.938 49.436C22.938 49.4358 22.938 49.4356 22.938 49.4353C22.938 49.4351 22.938 49.4349 22.938 49.4347C22.938 49.4345 22.938 49.4343 22.938 49.4341C22.938 49.4339 22.938 49.4337 22.938 49.4335C22.938 49.4333 22.938 49.433 22.938 49.4328C22.938 49.4326 22.938 49.4324 22.938 49.4322C22.938 49.432 22.938 49.4318 22.938 49.4316C22.938 49.4314 22.938 49.4311 22.938 49.4309C22.938 49.4307 22.938 49.4305 22.938 49.4303C22.938 49.4301 22.938 49.4299 22.938 49.4297C22.938 49.4294 22.938 49.4292 22.938 49.429C22.938 49.4288 22.938 49.4286 22.938 49.4284C22.938 49.4282 22.938 49.4279 22.938 49.4277C22.938 49.4275 22.938 49.4273 22.938 49.4271C22.938 49.4269 22.938 49.4267 22.938 49.4265C22.938 49.4262 22.938 49.426 22.938 49.4258C22.938 49.4256 22.938 49.4254 22.938 49.4252C22.938 49.4249 22.938 49.4247 22.938 49.4245C22.938 49.4243 22.938 49.4241 22.938 49.4239C22.938 49.4237 22.938 49.4234 22.938 49.4232C22.938 49.423 22.938 49.4228 22.938 49.4226C22.938 49.4224 22.938 49.4221 22.938 49.4219C22.938 49.4217 22.938 49.4215 22.938 49.4213C22.938 49.4211 22.938 49.4208 22.938 49.4206C22.938 49.4204 22.938 49.4202 22.938 49.42C22.938 49.4198 22.938 49.4195 22.938 49.4193C22.938 49.4191 22.938 49.4189 22.938 49.4187C22.938 49.4184 22.938 49.4182 22.938 49.418C22.938 49.4178 22.938 49.4176 22.938 49.4173C22.938 49.4171 22.938 49.4169 22.938 49.4167C22.938 49.4165 22.938 49.4162 22.938 49.416C22.938 49.4158 22.938 49.4156 22.938 49.4154C22.938 49.4151 22.938 49.4149 22.938 49.4147C22.938 49.4145 22.938 49.4143 22.938 49.414C22.938 49.4138 22.938 49.4136 22.938 49.4134C22.938 49.4132 22.938 49.4129 22.938 49.4127C22.938 49.4125 22.938 49.4123 22.938 49.412C22.938 49.4118 22.938 49.4116 22.938 49.4114C22.938 49.4112 22.938 49.4109 22.938 49.4107C22.938 49.4105 22.938 49.4103 22.938 49.41C22.938 49.4098 22.938 49.4096 22.938 49.4094C22.938 49.4091 22.938 49.4089 22.938 49.4087C22.938 49.4085 22.938 49.4083 22.938 49.408C22.938 49.4078 22.938 49.4076 22.938 49.4074C22.938 49.4071 22.938 49.4069 22.938 49.4067C22.938 49.4065 22.938 49.4062 22.938 49.406C22.938 49.4058 22.938 49.4056 22.938 49.4053C22.938 49.4051 22.938 49.4049 22.938 49.4047C22.938 49.4044 22.938 49.4042 22.938 49.404C22.938 49.4037 22.938 49.4035 22.938 49.4033C22.938 49.4031 22.938 49.4028 22.938 49.4026C22.938 49.4024 22.938 49.4022 22.938 49.4019C22.938 49.4017 22.938 49.4015 22.938 49.4012C22.938 49.401 22.938 49.4008 22.938 49.4006C22.938 49.4003 22.938 49.4001 22.938 49.3999C22.938 49.3996 22.938 49.3994 22.938 49.3992C22.938 49.399 22.938 49.3987 22.938 49.3985C22.938 49.3983 22.938 49.398 22.938 49.3978C22.938 49.3976 22.938 49.3974 22.938 49.3971C22.938 49.3969 22.938 49.3967 22.938 49.3964C22.938 49.3962 22.938 49.396 22.938 49.3957C22.938 49.3955 22.938 49.3953 22.938 49.3951C22.938 49.3948 22.938 49.3946 22.938 49.3944C22.938 49.3941 22.938 49.3939 22.938 49.3937C22.938 49.3934 22.938 49.3932 22.938 49.393C22.938 49.3927 22.938 49.3925 22.938 49.3923C22.938 49.392 22.938 49.3918 22.938 49.3916C22.938 49.3913 22.938 49.3911 22.938 49.3909C22.938 49.3906 22.938 49.3904 22.938 49.3902C22.938 49.3899 22.938 49.3897 22.938 49.3895C22.938 49.3892 22.938 49.389 22.938 49.3888C22.938 49.3885 22.938 49.3883 22.938 49.3881C22.938 49.3878 22.938 49.3876 22.938 49.3874C22.938 49.3871 22.938 49.3869 22.938 49.3867C22.938 49.3864 22.938 49.3862 22.938 49.3859C22.938 49.3857 22.938 49.3855 22.938 49.3852C22.938 49.385 22.938 49.3848 22.938 49.3845C22.938 49.3843 22.938 49.3841 22.938 49.3838C22.938 49.3836 22.938 49.3833 22.938 49.3831C22.938 49.3829 22.938 49.3826 22.938 49.3824C22.938 49.3822 22.938 49.3819 22.938 49.3817C22.938 49.3814 22.938 49.3812 22.938 49.381C22.938 49.3807 22.938 49.3805 22.938 49.3803C22.938 49.38 22.938 49.3798 22.938 49.3795C22.938 49.3793 22.938 49.3791 22.938 49.3788C22.938 49.3786 22.938 49.3783 22.938 49.3781C22.938 49.3779 22.938 49.3776 22.938 49.3774C22.938 49.3771 22.938 49.3769 22.938 49.3767C22.938 49.3764 22.938 49.3762 22.938 49.3759C22.938 49.3757 22.938 49.3755 22.938 49.3752C22.938 49.375 22.938 49.3747 22.938 49.3745C22.938 49.3743 22.938 49.374 22.938 49.3738C22.938 49.3735 22.938 49.3733 22.938 49.373C22.938 49.3728 22.938 49.3726 22.938 49.3723C22.938 49.3721 22.938 49.3718 22.938 49.3716C22.938 49.3714 22.938 49.3711 22.938 49.3709C22.938 49.3706 22.938 49.3704 22.938 49.3701C22.938 49.3699 22.938 49.3696 22.938 49.3694C22.938 49.3692 22.938 49.3689 22.938 49.3687C22.938 49.3684 22.938 49.3682 22.938 49.3679C22.938 49.3677 22.938 49.3674 22.938 49.3672C22.938 49.367 22.938 49.3667 22.938 49.3665C22.938 49.3662 22.938 49.366 22.938 49.3657C22.938 49.3655 22.938 49.3652 22.938 49.365C22.938 49.3647 22.938 49.3645 22.938 49.3643C22.938 49.364 22.938 49.3638 22.938 49.3635C22.938 49.3633 22.938 49.363 22.938 49.3628C22.938 49.3625 22.938 49.3623 22.938 49.362C22.938 49.3618 22.938 49.3615 22.938 49.3613C22.938 49.361 22.938 49.3608 22.938 49.3605C22.938 49.3603 22.938 49.3601 22.938 49.3598C22.938 49.3596 22.938 49.3593 22.938 49.3591C22.938 49.3588 22.938 49.3586 22.938 49.3583C22.938 49.3581 22.938 49.3578 22.938 49.3576C22.938 49.3573 22.938 49.3571 22.938 49.3568C22.938 49.3566 22.938 49.3563 22.938 49.3561C22.938 49.3558 22.938 49.3556 22.938 49.3553C22.938 49.3551 22.938 49.3548 22.938 49.3546C22.938 49.3543 22.938 49.3541 22.938 49.3538C22.938 49.3536 22.938 49.3533 22.938 49.353C22.938 49.3528 22.938 49.3525 22.938 49.3523C22.938 49.352 22.938 49.3518 22.938 49.3515C22.938 49.3513 22.938 49.351 22.938 49.3508C22.938 49.3505 22.938 49.3503 22.938 49.35C22.938 49.3498 22.938 49.3495 22.938 49.3493C22.938 49.349 22.938 49.3488 22.938 49.3485C22.938 49.3482 22.938 49.348 22.938 49.3477C22.938 49.3475 22.938 49.3472 22.938 49.347C22.938 49.3467 22.938 49.3465 22.938 49.3462C22.938 49.346 22.938 49.3457 22.938 49.3454C22.938 49.3452 22.938 49.3449 22.938 49.3447C22.938 49.3444 22.938 49.3442 22.938 49.3439C22.938 49.3437 22.938 49.3434 22.938 49.3431C22.938 49.3429 22.938 49.3426 22.938 49.3424C22.938 49.3421 22.938 49.3419 22.938 49.3416C22.938 49.3413 22.938 49.3411 22.938 49.3408C22.938 49.3406 22.938 49.3403 22.938 49.3401C22.938 49.3398 22.938 49.3395 22.938 49.3393C22.938 49.339 22.938 49.3388 22.938 49.3385C22.938 49.3382 22.938 49.338 22.938 49.3377C22.938 49.3375 22.938 49.3372 22.938 49.337C22.938 49.3367 22.938 49.3364 22.938 49.3362C22.938 49.3359 22.938 49.3357 22.938 49.3354C22.938 49.3351 22.938 49.3349 22.938 49.3346C22.938 49.3344 22.938 49.3341 22.938 49.3338C22.938 49.3336 22.938 49.3333 22.938 49.3331C22.938 49.3328 22.938 49.3325 22.938 49.3323C22.938 49.332 22.938 49.3317 22.938 49.3315C22.938 49.3312 22.938 49.331 22.938 49.3307C22.938 49.3304 22.938 49.3302 22.938 49.3299C22.938 49.3297 22.938 49.3294 22.938 49.3291C22.938 49.3289 22.938 49.3286 22.938 49.3283C22.938 49.3281 22.938 49.3278 22.938 49.3275C22.938 49.3273 22.938 49.327 22.938 49.3268C22.938 49.3265 22.938 49.3262 22.938 49.326C22.938 49.3257 22.938 49.3254 22.938 49.3252C22.938 49.3249 22.938 49.3246 22.938 49.3244C22.938 49.3241 22.938 49.3238 22.938 49.3236C22.938 49.3233 22.938 49.3231 22.938 49.3228C22.938 49.3225 22.938 49.3223 22.938 49.322C22.938 49.3217 22.938 49.3215 22.938 49.3212C22.938 49.3209 22.938 49.3207 22.938 49.3204C22.938 49.3201 22.938 49.3199 22.938 49.3196C22.938 49.3193 22.938 49.3191 22.938 49.3188C22.938 49.3185 22.938 49.3183 22.938 49.318C22.938 49.3177 22.938 49.3174 22.938 49.3172C22.938 49.3169 22.938 49.3166 22.938 49.3164C22.938 49.3161 22.938 49.3158 22.938 49.3156C22.938 49.3153 22.938 49.315 22.938 49.3148C22.938 49.3145 22.938 49.3142 22.938 49.314C22.938 49.3137 22.938 49.3134 22.938 49.3131C22.938 49.3129 22.938 49.3126 22.938 49.3123C22.938 49.3121 22.938 49.3118 22.938 49.3115C22.938 49.3113 22.938 49.311 22.938 49.3107C22.938 49.3104 22.938 49.3102 22.938 49.3099C22.938 49.3096 22.938 49.3094 22.938 49.3091C22.938 49.3088 22.938 49.3085 22.938 49.3083C22.938 49.308 22.938 49.3077 22.938 49.3075C22.938 49.3072 22.938 49.3069 22.938 49.3066C22.938 49.3064 22.938 49.3061 22.938 49.3058C22.938 49.3055 22.938 49.3053 22.938 49.305C22.938 49.3047 22.938 49.3044 22.938 49.3042C22.938 49.3039 22.938 49.3036 22.938 49.3034C22.938 49.3031 22.938 49.3028 22.938 49.3025C22.938 49.3023 22.938 49.302 22.938 49.3017C22.938 49.3014 22.938 49.3012 22.938 49.3009C22.938 49.3006 22.938 49.3003 22.938 49.3001C22.938 49.2998 22.938 49.2995 22.938 49.2992C22.938 49.299 22.938 49.2987 22.938 49.2984C22.938 49.2981 22.938 49.2978 22.938 49.2976C22.938 49.2973 22.938 49.297 22.938 49.2967C22.938 49.2965 22.938 49.2962 22.938 49.2959C22.938 49.2956 22.938 49.2954 22.938 49.2951C22.938 49.2948 22.938 49.2945 22.938 49.2942C22.938 49.294 22.938 49.2937 22.938 49.2934C22.938 49.2931 22.938 49.2929 22.938 49.2926C22.938 49.2923 22.938 49.292 22.938 49.2917C22.938 49.2915 22.938 49.2912 22.938 49.2909C22.938 49.2906 22.938 49.2903 22.938 49.2901C22.938 49.2898 22.938 49.2895 22.938 49.2892C22.938 49.2889 22.938 49.2887 22.938 49.2884C22.938 49.2881 22.938 49.2878 22.938 49.2875C22.938 49.2873 22.938 49.287 22.938 49.2867C22.938 49.2864 22.938 49.2861 22.938 49.2858C22.938 49.2856 22.938 49.2853 22.938 49.285C22.938 49.2847 22.938 49.2844 22.938 49.2842C22.938 49.2839 22.938 49.2836 22.938 49.2833C22.938 49.283 22.938 49.2827 22.938 49.2825C22.938 49.2822 22.938 49.2819 22.938 49.2816C22.938 49.2813 22.938 49.281 22.938 49.2808C22.938 49.2805 22.938 49.2802 22.938 49.2799C22.938 49.2796 22.938 49.2793 22.938 49.2791C22.938 49.2788 22.938 49.2785 22.938 49.2782C22.938 49.2779 22.938 49.2776 22.938 49.2773C22.938 49.2771 22.938 49.2768 22.938 49.2765C22.938 49.2762 22.938 49.2759 22.938 49.2756C22.938 49.2753 22.938 49.2751 22.938 49.2748C22.938 49.2745 22.938 49.2742 22.938 49.2739C22.938 49.2736 22.938 49.2733 22.938 49.2731C22.938 49.2728 22.938 49.2725 22.938 49.2722C22.938 49.2719 22.938 49.2716 22.938 49.2713C22.938 49.271 22.938 49.2708 22.938 49.2705C22.938 49.2702 22.938 49.2699 22.938 49.2696C22.938 49.2693 22.938 49.269 22.938 49.2687C22.938 49.2684 22.938 49.2682 22.938 49.2679C22.938 49.2676 22.938 49.2673 22.938 49.267C22.938 49.2667 22.938 49.2664 22.938 49.2661C22.938 49.2658 22.938 49.2656 22.938 49.2653C22.938 49.265 22.938 49.2647 22.938 49.2644C22.938 49.2641 22.938 49.2638 22.938 49.2635C22.938 49.2632 22.938 49.2629 22.938 49.2626C22.938 49.2624 22.938 49.2621 22.938 49.2618C22.938 49.2615 22.938 49.2612 22.938 49.2609C22.938 49.2606 22.938 49.2603 22.938 49.26C22.938 49.2597 22.938 49.2594 22.938 49.2591C22.938 49.2589 22.938 49.2586 22.938 49.2583C22.938 49.258 22.938 49.2577 22.938 49.2574C22.938 49.2571 22.938 49.2568 22.938 49.2565C22.938 49.2562 22.938 49.2559 22.938 49.2556C22.938 49.2553 22.938 49.255 22.938 49.2547C22.938 49.2544 22.938 49.2542 22.938 49.2539C22.938 49.2536 22.938 49.2533 22.938 49.253C22.938 49.2527 22.938 49.2524 22.938 49.2521C22.938 49.2518 22.938 49.2515 22.938 49.2512C22.938 49.2509 22.938 49.2506 22.938 49.2503C22.938 49.25 22.938 49.2497 22.938 49.2494C22.938 49.2491 22.938 49.2488 22.938 49.2485C22.938 49.2482 22.938 49.2479 22.938 49.2476C22.938 49.2473 22.938 49.247 22.938 49.2467C22.938 49.2464 22.938 49.2462 22.938 49.2459C22.938 49.2456 22.938 49.2453 22.938 49.245C22.938 49.2447 22.938 49.2444 22.938 49.2441C22.938 49.2438 22.938 49.2435 22.938 49.2432C22.938 49.2429 22.938 49.2426 22.938 49.2423C22.938 49.242 22.938 49.2417 22.938 49.2414C22.938 49.2411 22.938 49.2408 22.938 49.2405C22.938 49.2402 22.938 49.2399 22.938 49.2396C22.938 49.2393 22.938 49.239 22.938 49.2387C22.938 49.2384 22.938 49.2381 22.938 49.2378C22.938 49.2375 22.938 49.2372 22.938 49.2369C22.938 49.2366 22.938 49.2363 22.938 49.236C22.938 49.2357 22.938 49.2353 22.938 49.235C22.938 49.2347 22.938 49.2344 22.938 49.2341C22.938 49.2338 22.938 49.2335 22.938 49.2332C22.938 49.2329 22.938 49.2326 22.938 49.2323C22.938 49.232 22.938 49.2317 22.938 49.2314C22.938 49.2311 22.938 49.2308 22.938 49.2305C22.938 49.2302 22.938 49.2299 22.938 49.2296C22.938 49.2293 22.938 49.229 22.938 49.2287C22.938 49.2284 22.938 49.2281 22.938 49.2278C22.938 49.2275 22.938 49.2271 22.938 49.2268C22.938 49.2265 22.938 49.2262 22.938 49.2259C22.938 49.2256 22.938 49.2253 22.938 49.225C22.938 49.2247 22.938 49.2244 22.938 49.2241C22.938 49.2238 22.938 49.2235 22.938 49.2232C22.938 49.2229 22.938 49.2226 22.938 49.2222C22.938 49.2219 22.938 49.2216 22.938 49.2213C22.938 49.221 22.938 49.2207 22.938 49.2204C22.938 49.2201 22.938 49.2198 22.938 49.2195C22.938 49.2192 22.938 49.2189 22.938 49.2186C22.938 49.2182 22.938 49.2179 22.938 49.2176C22.938 49.2173 22.938 49.217 22.938 49.2167C22.938 49.2164 22.938 49.2161 22.938 49.2158C22.938 49.2155 22.938 49.2151 22.938 49.2148C22.938 49.2145 22.938 49.2142 22.938 49.2139C22.938 49.2136 22.938 49.2133 22.938 49.213C22.938 49.2127 22.938 49.2124 22.938 49.212C22.938 49.2117 22.938 49.2114 22.938 49.2111C22.938 49.2108 22.938 49.2105 22.938 49.2102C22.938 49.2099 22.938 49.2096 22.938 49.2092C22.938 49.2089 22.938 49.2086 22.938 49.2083C22.938 49.208 22.938 49.2077 22.938 49.2074C22.938 49.207 22.938 49.2067 22.938 49.2064C22.938 49.2061 22.938 49.2058 22.938 49.2055C22.938 49.2052 22.938 49.2049 22.938 49.2045C22.938 49.2042 22.938 49.2039 22.938 49.2036C22.938 49.2033 22.938 49.203 22.938 49.2027C22.938 49.2023 22.938 49.202 22.938 49.2017C22.938 49.2014 22.938 49.2011 22.938 49.2008C22.938 49.2004 22.938 49.2001 22.938 49.1998C22.938 49.1995 22.938 49.1992 22.938 49.1989C22.938 49.1986 22.938 49.1982 22.938 49.1979C22.938 49.1976 22.938 49.1973 22.938 49.197C22.938 49.1967 22.938 49.1963 22.938 49.196C22.938 49.1957 22.938 49.1954 22.938 49.1951C22.938 49.1947 22.938 49.1944 22.938 49.1941C22.938 49.1938 22.938 49.1935 22.938 49.1932C22.938 49.1928 22.938 49.1925 22.938 49.1922C22.938 49.1919 22.938 49.1916 22.938 49.1912C22.938 49.1909 22.938 49.1906 22.938 49.1903C22.938 49.19 22.938 49.1897 22.938 49.1893C22.938 49.189 22.938 49.1887 22.938 49.1884C22.938 49.1881 22.938 49.1877 22.938 49.1874C22.938 49.1871 22.938 49.1868 22.938 49.1864C22.938 49.1861 22.938 49.1858 22.938 49.1855C22.938 49.1852 22.938 49.1848 22.938 49.1845C22.938 49.1842 22.938 49.1839 22.938 49.1836C22.938 49.1832 22.938 49.1829 22.938 49.1826C22.938 49.1823 22.938 49.1819 22.938 49.1816C22.938 49.1813 22.938 49.181 22.938 49.1807C22.938 49.1803 22.938 49.18 22.938 49.1797C22.938 49.1794 22.938 49.179 22.938 49.1787C22.938 49.1784 22.938 49.1781 22.938 49.1777C22.938 49.1774 22.938 49.1771 22.938 49.1768C22.938 49.1764 22.938 49.1761 22.938 49.1758C22.938 49.1755 22.938 49.1751 22.938 49.1748C22.938 49.1745 22.938 49.1742 22.938 49.1738C22.938 49.1735 22.938 49.1732 22.938 49.1729C22.938 49.1725 22.938 49.1722 22.938 49.1719C22.938 49.1716 22.938 49.1712 22.938 49.1709C22.938 49.1706 22.938 49.1703 22.938 49.1699C22.938 49.1696 22.938 49.1693 22.938 49.169C22.938 49.1686 22.938 49.1683 22.938 49.168C22.938 49.1676 22.938 49.1673 22.938 49.167C22.938 49.1667 22.938 49.1663 22.938 49.166C22.938 49.1657 22.938 49.1653 22.938 49.165C22.938 49.1647 22.938 49.1644 22.938 49.164C22.938 49.1637 22.938 49.1634 22.938 49.163C22.938 49.1627 22.938 49.1624 22.938 49.1621C22.938 49.1617 22.938 49.1614 22.938 49.1611C22.938 49.1607 22.938 49.1604 22.938 49.1601C22.938 49.1597 22.938 49.1594 22.938 49.1591C22.938 49.1588 22.938 49.1584 22.938 49.1581C22.938 49.1578 22.938 49.1574 22.938 49.1571C22.938 49.1568 22.938 49.1564 22.938 49.1561C22.938 49.1558 22.938 49.1554 22.938 49.1551C22.938 49.1548 22.938 49.1544 22.938 49.1541C22.938 49.1538 22.938 49.1534 22.938 49.1531C22.938 49.1528 22.938 49.1524 22.938 49.1521C22.938 49.1518 22.938 49.1514 22.938 49.1511C22.938 49.1508 22.938 49.1504 22.938 49.1501C22.938 49.1498 22.938 49.1494 22.938 49.1491C22.938 49.1488 22.938 49.1484 22.938 49.1481C22.938 49.1478 22.938 49.1474 22.938 49.1471C22.938 49.1468 22.938 49.1464 22.938 49.1461C22.938 49.1458 22.938 49.1454 22.938 49.1451C22.938 49.1448 22.938 49.1444 22.938 49.1441C22.938 49.1437 22.938 49.1434 22.938 49.1431C22.938 49.1427 22.938 49.1424 22.938 49.1421C22.938 49.1417 22.938 49.1414 22.938 49.1411C22.938 49.1407 22.938 49.1404 22.938 49.14C22.938 49.1397 22.938 49.1394 22.938 49.139C22.938 49.1387 22.938 49.1383 22.938 49.138C22.938 49.1377 22.938 49.1373 22.938 49.137C22.938 49.1367 22.938 49.1363 22.938 49.136C22.938 49.1356 22.938 49.1353 22.938 49.135C22.938 49.1346 22.938 49.1343 22.938 49.1339C22.938 49.1336 22.938 49.1333 22.938 49.1329C22.938 49.1326 22.938 49.1322 22.938 49.1319C22.938 49.1316 22.938 49.1312 22.938 49.1309C22.938 49.1305 22.938 49.1302 22.938 49.1299C22.938 49.1295 22.938 49.1292 22.938 49.1288C22.938 49.1285 22.938 49.1282 22.938 49.1278C22.938 49.1275 22.938 49.1271 22.938 49.1268C22.938 49.1264 22.938 49.1261 22.938 49.1258C22.938 49.1254 22.938 49.1251 22.938 49.1247C22.938 49.1244 22.938 49.124 22.938 49.1237C22.938 49.1234 22.938 49.123 22.938 49.1227C22.938 49.1223 22.938 49.122 22.938 49.1216C22.938 49.1213 22.938 49.121 22.938 49.1206C22.938 49.1203 22.938 49.1199 22.938 49.1196C22.938 49.1192 22.938 49.1189 22.938 49.1185C22.938 49.1182 22.938 49.1178 22.938 49.1175C22.938 49.1172 22.938 49.1168 22.938 49.1165C22.938 49.1161 22.938 49.1158 22.938 49.1154C22.938 49.1151 22.938 49.1147 22.938 49.1144C22.938 49.114 22.938 49.1137 22.938 49.1133C22.938 49.113 22.938 49.1127 22.938 49.1123C22.938 49.112 22.938 49.1116 22.938 49.1113C22.938 49.1109 22.938 49.1106 22.938 49.1102C22.938 49.1099 22.938 49.1095 22.938 49.1092C22.938 49.1088 22.938 49.1085 22.938 49.1081C22.938 49.1078 22.938 49.1074 22.938 49.1071C22.938 49.1067 22.938 49.1064 22.938 49.106C22.938 49.1057 22.938 49.1053 22.938 49.105C22.938 49.1046 22.938 49.1043 22.938 49.1039C22.938 49.1036 22.938 49.1032 22.938 49.1029C22.938 49.1025 22.938 49.1022 22.938 49.1018C22.938 49.1015 22.938 49.1011 22.938 49.1008C22.938 49.1004 22.938 49.1001 22.938 49.0997C22.938 49.0994 22.938 49.099 22.938 49.0987C22.938 49.0983 22.938 49.098 22.938 49.0976C22.938 49.0973 22.938 49.0969 22.938 49.0966C22.938 49.0962 22.938 49.0959 22.938 49.0955C22.938 49.0952 22.938 49.0948 22.938 49.0944C22.938 49.0941 22.938 49.0937 22.938 49.0934C22.938 49.093 22.938 49.0927 22.938 49.0923C22.938 49.092 22.938 49.0916 22.938 49.0913C22.938 49.0909 22.938 49.0906 22.938 49.0902C22.938 49.0898 22.938 49.0895 22.938 49.0891C22.938 49.0888 22.938 49.0884 22.938 49.0881C22.938 49.0877 22.938 49.0874 22.938 49.087C22.938 49.0867 22.938 49.0863 22.938 49.0859C22.938 49.0856 22.938 49.0852 22.938 49.0849C22.938 49.0845 22.938 49.0842 22.938 49.0838C22.938 49.0834 22.938 49.0831 22.938 49.0827C22.938 49.0824 22.938 49.082 22.938 49.0817C22.938 49.0813 22.938 49.0809 22.938 49.0806C22.938 49.0802 22.938 49.0799 22.938 49.0795C22.938 49.0792 22.938 49.0788 22.938 49.0784C22.938 49.0781 22.938 49.0777 22.938 49.0774C22.938 49.077 22.938 49.0766 22.938 49.0763C22.938 49.0759 22.938 49.0756 22.938 49.0752C22.938 49.0748 22.938 49.0745 22.938 49.0741C22.938 49.0738 22.938 49.0734 22.938 49.073C22.938 49.0727 22.938 49.0723 22.938 49.072C22.938 49.0716 22.938 49.0712 22.938 49.0709C22.938 49.0705 22.938 49.0702 22.938 49.0698C22.938 49.0694 22.938 49.0691 22.938 49.0687C22.938 49.0684 22.938 49.068 22.938 49.0676C22.938 49.0673 22.938 49.0669 22.938 49.0665C22.938 49.0662 22.938 49.0658 22.938 49.0655C22.938 49.0651 22.938 49.0647 22.938 49.0644C22.938 49.064 22.938 49.0636 22.938 49.0633C22.938 49.0629 22.938 49.0625 22.938 49.0622C22.938 49.0618 22.938 49.0615 22.938 49.0611C22.938 49.0607 22.938 49.0604 22.938 49.06H20.938ZM22.8042 49.9797C24.1296 47.6823 25.9456 45.6846 28.2681 43.9874L27.088 42.3726C24.5572 44.2221 22.5464 46.4243 21.0719 48.9803L22.8042 49.9797ZM28.2681 43.9874C30.6098 42.2761 33.2264 40.9214 36.1231 39.9257L35.473 38.0343C32.3964 39.0919 29.5996 40.5372 27.088 42.3726L28.2681 43.9874ZM36.1231 39.9257C39.0047 38.9352 41.9748 38.44 45.0381 38.44V36.44C41.7546 36.44 38.5648 36.9715 35.473 38.0343L36.1231 39.9257ZM45.0381 38.44C50.2825 38.44 55.1539 39.7038 59.6694 42.2325L60.6467 40.4875C55.8288 37.7895 50.6203 36.44 45.0381 36.44V38.44ZM59.6829 42.2399C64.1772 44.6668 67.779 48.2174 70.4919 52.9197L72.2242 51.9203C69.3371 46.9159 65.4723 43.0932 60.6332 40.4801L59.6829 42.2399ZM70.5035 52.9394C73.2863 57.5176 74.6981 62.9778 74.6981 69.36H76.6981C76.6981 62.6755 75.2164 56.8424 72.2126 51.9006L70.5035 52.9394ZM74.6981 69.36C74.6981 75.254 73.2495 80.6799 70.3537 85.6571L72.0824 86.6629C75.1599 81.3734 76.6981 75.5994 76.6981 69.36H74.6981ZM70.3508 85.6621C67.5493 90.5422 63.6199 94.43 58.5419 97.3318L59.5342 99.0682C64.9095 95.9966 69.1001 91.8578 72.0853 86.6579L70.3508 85.6621ZM58.5352 97.3357C53.5738 100.222 47.8251 101.68 41.258 101.68V103.68C48.131 103.68 54.2357 102.151 59.5409 99.0643L58.5352 97.3357ZM40.138 85.76C43.2633 85.76 46.0853 85.1242 48.5794 83.8272L47.6567 82.0528C45.4842 83.1825 42.9861 83.76 40.138 83.76V85.76ZM48.6067 83.8125C51.0906 82.4215 53.0423 80.523 54.4418 78.1239L52.7143 77.1161C51.5004 79.197 49.8122 80.8452 47.6294 82.0675L48.6067 83.8125ZM54.426 78.15C55.9314 75.7414 56.678 73.0357 56.678 70.06H54.678C54.678 72.6843 54.0247 75.0186 52.7301 77.09L54.426 78.15ZM56.678 70.06C56.678 66.8256 55.9414 64.0132 54.4157 61.6737L52.7404 62.7663C54.0147 64.7202 54.678 67.1344 54.678 70.06H56.678ZM54.4418 61.7161C53.0326 59.3002 51.0173 57.4416 48.4253 56.1456L47.5308 57.9344C49.7921 59.0651 51.5102 60.6598 52.7143 62.7239L54.4418 61.7161ZM48.4667 56.1675C45.9627 54.7653 43.0829 54.08 39.858 54.08V56.08C42.7932 56.08 45.3267 56.7014 47.4894 57.9125L48.4667 56.1675ZM39.858 54.08C36.7328 54.08 33.9108 54.7158 31.4167 56.0128L32.3394 57.7872C34.5119 56.6575 37.01 56.08 39.858 56.08V54.08ZM31.4167 56.0128C28.9242 57.3089 26.9243 59.1592 25.43 61.55L27.126 62.61C28.4318 60.5208 30.1653 58.9178 32.3394 57.7872L31.4167 56.0128ZM25.43 61.55C23.9213 63.9639 23.178 66.7178 23.178 69.78H25.178C25.178 67.0556 25.8348 64.6761 27.126 62.61L25.43 61.55ZM23.178 69.78C23.178 72.8426 23.9214 75.6358 25.4206 78.1345L27.1355 77.1055C25.8347 74.9375 25.178 72.504 25.178 69.78H23.178ZM25.43 78.15C26.9203 80.5344 28.9113 82.4248 31.3894 83.8125L32.3667 82.0675C30.1781 80.8419 28.4358 79.1856 27.126 77.09L25.43 78.15ZM31.4308 83.8344C34.0141 85.1261 36.9239 85.76 40.138 85.76V83.76C37.1922 83.76 34.5953 83.1806 32.3253 82.0456L31.4308 83.8344Z" fill="#CECEFB" fill-opacity="0.4"/>
</svg>
